<svg width="461" height="182" viewBox="0 0 461 182" fill="none" xmlns="http://www.w3.org/2000/svg">
<path d="M49.9 97.6L50.8471 97.2792L50.6171 96.6H49.9V97.6ZM23.7 97.6V96.6H22.9829L22.7529 97.2792L23.7 97.6ZM19.5 110V111H20.2171L20.4471 110.321L19.5 110ZM1.6 110L0.65966 109.66L0.174731 111H1.6V110ZM27 39.8V38.8H26.2984L26.0597 39.4598L27 39.8ZM46.8 39.8L47.7403 39.4598L47.5016 38.8H46.8V39.8ZM72.2 110V111H73.6253L73.1403 109.66L72.2 110ZM54.1 110L53.1529 110.321L53.3829 111H54.1V110ZM45.5 84.4V85.4H46.8943L46.4472 84.0794L45.5 84.4ZM36.8 58.7L37.7472 58.3794L36.7945 55.5651L35.8517 58.3827L36.8 58.7ZM28.2 84.4L27.2517 84.0827L26.8109 85.4H28.2V84.4ZM49.9 96.6H23.7V98.6H49.9V96.6ZM22.7529 97.2792L18.5529 109.679L20.4471 110.321L24.6471 97.9208L22.7529 97.2792ZM19.5 109H1.6V111H19.5V109ZM2.54034 110.34L27.9403 40.1402L26.0597 39.4598L0.65966 109.66L2.54034 110.34ZM27 40.8H46.8V38.8H27V40.8ZM45.8597 40.1402L71.2597 110.34L73.1403 109.66L47.7403 39.4598L45.8597 40.1402ZM72.2 109H54.1V111H72.2V109ZM55.0471 109.679L50.8471 97.2792L48.9529 97.9208L53.1529 110.321L55.0471 109.679ZM46.4472 84.0794L37.7472 58.3794L35.8528 59.0206L44.5528 84.7206L46.4472 84.0794ZM35.8517 58.3827L27.2517 84.0827L29.1483 84.7173L37.7483 59.0173L35.8517 58.3827ZM28.2 85.4H45.5V83.4H28.2V85.4ZM97.0305 62.1H96.0305V65.633L97.8821 62.6241L97.0305 62.1ZM103.93 55.8L103.46 54.9176L103.93 55.8ZM126.73 56.9L126.2 57.748L126.73 56.9ZM135.53 66.9L134.633 67.3417L134.639 67.3527L135.53 66.9ZM135.53 97.2L134.636 96.7528L134.633 96.7583L135.53 97.2ZM126.73 107.3L127.261 108.148L127.271 108.141L126.73 107.3ZM103.93 108.5L103.452 109.378L103.459 109.382L103.467 109.386L103.93 108.5ZM97.0305 102.2L97.8724 101.66L96.0305 98.787V102.2H97.0305ZM97.0305 110V111H98.0305V110H97.0305ZM79.9305 110H78.9305V111H79.9305V110ZM79.9305 36V35H78.9305V36H79.9305ZM97.0305 36H98.0305V35H97.0305V36ZM117.83 72L117.104 72.6872L117.114 72.6973L117.123 72.7071L117.83 72ZM100.43 72L99.7137 71.3026L99.704 71.3128L100.43 72ZM100.43 92.2L99.7039 92.8873L99.7137 92.8974L100.43 92.2ZM117.83 92.2L118.547 92.8974L118.556 92.8877L117.83 92.2ZM97.8821 62.6241C99.3789 60.1919 101.539 58.2086 104.401 56.6823L103.46 54.9176C100.322 56.5914 97.8821 58.8081 96.1788 61.5759L97.8821 62.6241ZM104.401 56.6823C107.237 55.1696 110.505 54.4 114.23 54.4V52.4C110.222 52.4 106.624 53.2304 103.46 54.9176L104.401 56.6823ZM114.23 54.4C118.652 54.4 122.633 55.5186 126.2 57.748L127.26 56.052C123.361 53.6148 119.009 52.4 114.23 52.4V54.4ZM126.2 57.748C129.761 59.9732 132.574 63.1585 134.633 67.3417L136.428 66.4583C134.22 61.9748 131.167 58.4934 127.26 56.052L126.2 57.748ZM134.639 67.3527C136.756 71.5226 137.83 76.3958 137.83 82H139.83C139.83 76.1375 138.705 70.944 136.422 66.4473L134.639 67.3527ZM137.83 82C137.83 87.6037 136.756 92.5129 134.636 96.7528L136.425 97.6472C138.705 93.0871 139.83 87.8629 139.83 82H137.83ZM134.633 96.7583C132.573 100.943 129.757 104.166 126.19 106.459L127.271 108.141C131.171 105.634 134.221 102.123 136.428 97.6417L134.633 96.7583ZM126.2 106.452C122.633 108.681 118.652 109.8 114.23 109.8V111.8C119.009 111.8 123.361 110.585 127.26 108.148L126.2 106.452ZM114.23 109.8C110.428 109.8 107.159 109.06 104.394 107.614L103.467 109.386C106.568 111.007 110.166 111.8 114.23 111.8V109.8ZM104.409 107.622C101.611 106.096 99.441 104.107 97.8724 101.66L96.1886 102.74C97.9533 105.493 100.383 107.704 103.452 109.378L104.409 107.622ZM96.0305 102.2V110H98.0305V102.2H96.0305ZM97.0305 109H79.9305V111H97.0305V109ZM80.9305 110V36H78.9305V110H80.9305ZM79.9305 37H97.0305V35H79.9305V37ZM96.0305 36V62.1H98.0305V36H96.0305ZM122.43 82C122.43 77.54 121.17 73.9258 118.538 71.2929L117.123 72.7071C119.29 74.8742 120.43 77.9267 120.43 82H122.43ZM118.557 71.3128C116.03 68.6418 112.865 67.3 109.13 67.3V69.3C112.329 69.3 114.964 70.4249 117.104 72.6872L118.557 71.3128ZM109.13 67.3C105.457 67.3 102.299 68.6452 99.7137 71.3026L101.147 72.6973C103.362 70.4215 106.004 69.3 109.13 69.3V67.3ZM99.704 71.3128C97.153 74.0096 95.9305 77.6463 95.9305 82.1H97.9305C97.9305 78.0204 99.0413 74.9237 101.157 72.6872L99.704 71.3128ZM95.9305 82.1C95.9305 86.5537 97.153 90.1904 99.704 92.8872L101.157 91.5128C99.0413 89.2763 97.9305 86.1796 97.9305 82.1H95.9305ZM99.7137 92.8974C102.299 95.5548 105.457 96.9 109.13 96.9V94.9C106.004 94.9 103.362 93.7785 101.147 91.5026L99.7137 92.8974ZM109.13 96.9C112.804 96.9 115.962 95.5548 118.547 92.8974L117.114 91.5026C114.899 93.7785 112.257 94.9 109.13 94.9V96.9ZM118.556 92.8877C121.17 90.1292 122.43 86.4624 122.43 82H120.43C120.43 86.0709 119.291 89.2041 117.105 91.5123L118.556 92.8877ZM158.402 107.3L157.927 108.18L157.933 108.183L158.402 107.3ZM148.102 97.3L147.232 97.7947L147.238 97.8047L148.102 97.3ZM148.202 67L149.065 67.5047L149.068 67.499L148.202 67ZM158.602 56.9L159.07 57.7835L158.602 56.9ZM188.202 56.9L187.733 57.7835L188.202 56.9ZM198.602 67L197.735 67.499L197.738 67.5047L198.602 67ZM198.502 97.3L197.641 96.7913L197.638 96.7953L198.502 97.3ZM188.002 107.3L187.539 106.414L187.533 106.417L188.002 107.3ZM181.502 92.4L180.785 91.7029L180.78 91.7081L180.775 91.7134L181.502 92.4ZM181.602 71.8L180.864 72.4757L180.869 72.4812L180.875 72.4866L181.602 71.8ZM165.102 71.8L165.829 72.4861L165.839 72.4757L165.102 71.8ZM165.002 92.4L164.254 93.0644L164.259 93.0701L164.264 93.0757L165.002 92.4ZM173.202 109.8C167.882 109.8 163.112 108.666 158.87 106.417L157.933 108.183C162.491 110.601 167.588 111.8 173.202 111.8V109.8ZM158.876 106.42C154.707 104.175 151.407 100.973 148.965 96.7953L147.238 97.8047C149.862 102.293 153.429 105.758 157.927 108.18L158.876 106.42ZM148.971 96.8053C146.603 92.6458 145.402 87.7551 145.402 82.1H143.402C143.402 88.0449 144.667 93.2876 147.232 97.7947L148.971 96.8053ZM145.402 82.1C145.402 76.5184 146.633 71.6642 149.065 67.5047L147.338 66.4953C144.703 71.0025 143.402 76.2149 143.402 82.1H145.402ZM149.068 67.499C151.51 63.2587 154.84 60.0268 159.07 57.7835L158.133 56.0165C153.563 58.4398 149.96 61.9413 147.335 66.501L149.068 67.499ZM159.07 57.7835C163.312 55.5339 168.082 54.4 173.402 54.4V52.4C167.788 52.4 162.691 53.5994 158.133 56.0165L159.07 57.7835ZM173.402 54.4C178.721 54.4 183.491 55.5339 187.733 57.7835L188.67 56.0165C184.112 53.5994 179.015 52.4 173.402 52.4V54.4ZM187.733 57.7835C191.963 60.0268 195.294 63.2587 197.735 67.499L199.468 66.501C196.843 61.9413 193.24 58.4398 188.67 56.0165L187.733 57.7835ZM197.738 67.5047C200.17 71.6642 201.402 76.5184 201.402 82.1H203.402C203.402 76.2149 202.1 71.0025 199.465 66.4953L197.738 67.5047ZM201.402 82.1C201.402 87.6767 200.139 92.5635 197.641 96.7913L199.362 97.8087C202.064 93.2365 203.402 87.99 203.402 82.1H201.402ZM197.638 96.7953C195.2 100.966 191.839 104.167 187.539 106.414L188.465 108.186C193.097 105.766 196.736 102.301 199.365 97.8047L197.638 96.7953ZM187.533 106.417C183.291 108.666 178.521 109.8 173.202 109.8V111.8C178.815 111.8 183.912 110.601 188.47 108.183L187.533 106.417ZM173.202 97C176.747 97 179.775 95.6842 182.229 93.0866L180.775 91.7134C178.695 93.9157 176.19 95 173.202 95V97ZM182.219 93.0971C184.787 90.4548 186.002 86.7375 186.002 82.1H184.002C184.002 86.3959 182.882 89.5452 180.785 91.7029L182.219 93.0971ZM186.002 82.1C186.002 77.4698 184.825 73.7565 182.329 71.1134L180.875 72.4866C182.912 74.6435 184.002 77.7968 184.002 82.1H186.002ZM182.339 71.1243C179.949 68.5169 176.947 67.2 173.402 67.2V69.2C176.389 69.2 178.855 70.2831 180.864 72.4757L182.339 71.1243ZM173.402 67.2C169.796 67.2 166.759 68.5121 164.364 71.1243L165.839 72.4757C167.844 70.2879 170.341 69.2 173.402 69.2V67.2ZM164.374 71.114C161.938 73.6977 160.802 77.4174 160.802 82.1H162.802C162.802 77.716 163.865 74.569 165.829 72.486L164.374 71.114ZM160.802 82.1C160.802 86.7158 161.904 90.4206 164.254 93.0644L165.749 91.7356C163.832 89.5794 162.802 86.4175 162.802 82.1H160.802ZM164.264 93.0757C166.655 95.6831 169.656 97 173.202 97V95C170.214 95 167.749 93.9169 165.739 91.7243L164.264 93.0757ZM266.573 54.2H267.573V53.2H266.573V54.2ZM266.573 110V111H267.573V110H266.573ZM249.473 110H248.473V111H249.473V110ZM249.473 102.4H250.473V99.2376L248.655 101.825L249.473 102.4ZM242.373 108.4L242.821 109.294L242.829 109.29L242.373 108.4ZM221.273 107.8L220.764 108.661L220.771 108.664L220.777 108.668L221.273 107.8ZM213.673 99.5L212.779 99.9472L213.673 99.5ZM210.973 54.2V53.2H209.973V54.2H210.973ZM227.973 54.2H228.973V53.2H227.973V54.2ZM230.873 93.2L230.143 93.8832L230.873 93.2ZM246.573 93.2L245.843 92.5168L246.573 93.2ZM249.473 54.2V53.2H248.473V54.2H249.473ZM265.573 54.2V110H267.573V54.2H265.573ZM266.573 109H249.473V111H266.573V109ZM250.473 110V102.4H248.473V110H250.473ZM248.655 101.825C247.026 104.144 244.791 106.041 241.918 107.51L242.829 109.29C245.956 107.692 248.454 105.59 250.292 102.975L248.655 101.825ZM241.926 107.506C239.145 108.896 236.034 109.6 232.573 109.6V111.6C236.313 111.6 239.735 110.837 242.821 109.294L241.926 107.506ZM232.573 109.6C228.457 109.6 224.866 108.701 221.77 106.932L220.777 108.668C224.214 110.632 228.156 111.6 232.573 111.6V109.6ZM221.783 106.939C218.692 105.11 216.287 102.492 214.568 99.0528L212.779 99.9472C214.66 103.708 217.322 106.623 220.764 108.661L221.783 106.939ZM214.568 99.0528C212.85 95.6177 211.973 91.5435 211.973 86.8H209.973C209.973 91.7899 210.897 96.1823 212.779 99.9472L214.568 99.0528ZM211.973 86.8V54.2H209.973V86.8H211.973ZM210.973 55.2H227.973V53.2H210.973V55.2ZM226.973 54.2V84.5H228.973V54.2H226.973ZM226.973 84.5C226.973 88.4039 227.987 91.5783 230.143 93.8832L231.604 92.5168C229.893 90.6883 228.973 88.0628 228.973 84.5H226.973ZM230.143 93.8832C232.295 96.1837 235.177 97.3 238.673 97.3V95.3C235.637 95.3 233.318 94.3496 231.604 92.5168L230.143 93.8832ZM238.673 97.3C242.23 97.3 245.148 96.188 247.304 93.8832L245.843 92.5168C244.133 94.3453 241.784 95.3 238.673 95.3V97.3ZM247.304 93.8832C249.46 91.5783 250.473 88.4039 250.473 84.5H248.473C248.473 88.0628 247.554 90.6883 245.843 92.5168L247.304 93.8832ZM250.473 84.5V54.2H248.473V84.5H250.473ZM249.473 55.2H266.573V53.2H249.473V55.2ZM309.956 95.5H310.956V94.5H309.956V95.5ZM309.956 110V111H310.956V110H309.956ZM286.756 105.5L286.094 106.249L286.102 106.256L286.756 105.5ZM281.556 68.4H282.556V67.4H281.556V68.4ZM274.756 68.4H273.756V69.4H274.756V68.4ZM274.756 54.2V53.2H273.756V54.2H274.756ZM281.556 54.2V55.2H282.556V54.2H281.556ZM281.556 40.6V39.6H280.556V40.6H281.556ZM298.656 40.6H299.656V39.6H298.656V40.6ZM298.656 54.2H297.656V55.2H298.656V54.2ZM309.856 54.2H310.856V53.2H309.856V54.2ZM309.856 68.4V69.4H310.856V68.4H309.856ZM298.656 68.4V67.4H297.656V68.4H298.656ZM299.856 94.4L299.181 95.1372H299.181L299.856 94.4ZM308.956 95.5V110H310.956V95.5H308.956ZM309.956 109H301.256V111H309.956V109ZM301.256 109C295.211 109 290.64 107.539 287.411 104.744L286.102 106.256C289.806 109.461 294.901 111 301.256 111V109ZM287.419 104.751C284.253 101.951 282.556 97.3204 282.556 90.6H280.556C280.556 97.6129 282.326 102.916 286.094 106.249L287.419 104.751ZM282.556 90.6V68.4H280.556V90.6H282.556ZM281.556 67.4H274.756V69.4H281.556V67.4ZM275.756 68.4V54.2H273.756V68.4H275.756ZM274.756 55.2H281.556V53.2H274.756V55.2ZM282.556 54.2V40.6H280.556V54.2H282.556ZM281.556 41.6H298.656V39.6H281.556V41.6ZM297.656 40.6V54.2H299.656V40.6H297.656ZM298.656 55.2H309.856V53.2H298.656V55.2ZM308.856 54.2V68.4H310.856V54.2H308.856ZM309.856 67.4H298.656V69.4H309.856V67.4ZM297.656 68.4V90.8H299.656V68.4H297.656ZM297.656 90.8C297.656 92.598 298.085 94.1329 299.181 95.1372L300.532 93.6628C300.027 93.2004 299.656 92.3354 299.656 90.8H297.656ZM299.181 95.1372C300.259 96.1255 301.905 96.5 303.856 96.5V94.5C302.074 94.5 301.054 94.1412 300.532 93.6628L299.181 95.1372ZM303.856 96.5H309.956V94.5H303.856V96.5ZM357.473 39.8H358.473V38.8H357.473V39.8ZM360.573 91.5L359.834 92.1738L360.573 91.5ZM378.873 91.5L379.601 92.1854L378.873 91.5ZM382.073 39.8V38.8H381.073V39.8H382.073ZM399.173 39.8H400.173V38.8H399.173V39.8ZM395.173 97.6L396.024 98.1241L395.173 97.6ZM384.373 107.4L383.936 106.5L383.931 106.503L384.373 107.4ZM354.473 107.5L354.02 108.392L354.028 108.396L354.036 108.4L354.473 107.5ZM344.173 97.7L343.306 98.199L343.309 98.2047L344.173 97.7ZM340.373 39.8V38.8H339.373V39.8H340.373ZM356.473 39.8V81.8H358.473V39.8H356.473ZM356.473 81.8C356.473 86.1564 357.546 89.6642 359.834 92.1738L361.312 90.8262C359.466 88.8025 358.473 85.8436 358.473 81.8H356.473ZM359.834 92.1738C362.143 94.7067 365.482 95.9 369.673 95.9V93.9C365.864 93.9 363.135 92.8266 361.312 90.8262L359.834 92.1738ZM369.673 95.9C373.865 95.9 377.228 94.7062 379.601 92.1854L378.144 90.8146C376.25 92.8271 373.48 93.9 369.673 93.9V95.9ZM379.601 92.1854C381.962 89.6763 383.073 86.164 383.073 81.8H381.073C381.073 85.836 380.05 88.7904 378.144 90.8146L379.601 92.1854ZM383.073 81.8V39.8H381.073V81.8H383.073ZM382.073 40.8H399.173V38.8H382.073V40.8ZM398.173 39.8V81.7H400.173V39.8H398.173ZM398.173 81.7C398.173 87.8244 396.87 92.933 394.321 97.0759L396.024 98.1241C398.808 93.6003 400.173 88.1089 400.173 81.7H398.173ZM394.321 97.0759C391.753 101.249 388.296 104.384 383.936 106.5L384.809 108.3C389.516 106.016 393.259 102.618 396.024 98.1241L394.321 97.0759ZM383.931 106.503C379.616 108.628 374.77 109.7 369.373 109.7V111.7C375.042 111.7 380.196 110.572 384.815 108.297L383.931 106.503ZM369.373 109.7C363.97 109.7 359.156 108.659 354.909 106.6L354.036 108.4C358.589 110.607 363.708 111.7 369.373 111.7V109.7ZM354.925 106.608C350.769 104.498 347.476 101.369 345.036 97.1953L343.309 98.2047C345.936 102.698 349.51 106.102 354.02 108.392L354.925 106.608ZM345.039 97.201C342.612 92.9846 341.373 87.8322 341.373 81.7H339.373C339.373 88.1011 340.667 93.6154 343.306 98.199L345.039 97.201ZM341.373 81.7V39.8H339.373V81.7H341.373ZM340.373 40.8H357.473V38.8H340.373V40.8ZM420.88 108.3L421.282 107.384L420.88 108.3ZM411.88 101.5L411.08 102.1L411.087 102.109L411.88 101.5ZM408.18 91.7V90.7H407.104L407.183 91.7739L408.18 91.7ZM425.08 91.7L426.075 91.5971L425.982 90.7H425.08V91.7ZM427.78 96.4L428.38 95.6L427.78 96.4ZM438.58 97L439.157 97.817L439.166 97.8107L438.58 97ZM437.88 90.2L437.448 91.1015L437.463 91.1087L437.478 91.1153L437.88 90.2ZM429.78 87.6L430.023 86.6299L430.015 86.6279L430.008 86.6262L429.78 87.6ZM419.78 84.7L419.409 85.6285L419.419 85.6325L419.429 85.6363L419.78 84.7ZM412.88 79.8L412.12 80.4489L412.124 80.4546L412.129 80.4601L412.88 79.8ZM412.58 62L411.752 61.4405L411.748 61.4453L412.58 62ZM420.38 55.7L419.976 54.7854L419.969 54.7884L420.38 55.7ZM449.18 58.6L448.526 59.3557L448.532 59.361L449.18 58.6ZM456.18 72.4V73.4H457.291L457.175 72.2959L456.18 72.4ZM440.38 72.4L439.39 72.5366L439.509 73.4H440.38V72.4ZM437.78 67.8L437.151 68.5772L437.16 68.5844L437.169 68.5913L437.78 67.8ZM427.58 67.3L428.147 68.124L428.164 68.1124L428.18 68.1L427.58 67.3ZM428.48 74L428.048 74.9015L428.055 74.9048L428.061 74.908L428.48 74ZM436.48 76.4L436.73 75.4317L436.714 75.4275L436.697 75.4238L436.48 76.4ZM446.58 79.6L446.201 80.5252L446.211 80.5294L446.221 80.5333L446.58 79.6ZM453.38 84.6L452.61 85.238L452.62 85.25L452.631 85.2616L453.38 84.6ZM456.48 93.8H457.48V93.7914L457.48 93.7828L456.48 93.8ZM453.68 102.6L452.868 102.017L452.865 102.021L453.68 102.6ZM445.78 108.6L445.391 107.679L445.384 107.682L445.78 108.6ZM433.88 109.8C429.128 109.8 424.936 108.987 421.282 107.384L420.479 109.216C424.425 110.947 428.899 111.8 433.88 111.8V109.8ZM421.282 107.384C417.613 105.775 414.757 103.605 412.674 100.891L411.087 102.109C413.404 105.128 416.548 107.492 420.479 109.216L421.282 107.384ZM412.68 100.9C410.593 98.117 409.43 95.0323 409.178 91.6261L407.183 91.7739C407.464 95.5676 408.768 99.0163 411.08 102.1L412.68 100.9ZM408.18 92.7H425.08V90.7H408.18V92.7ZM424.086 91.8029C424.315 94.0224 425.365 95.8383 427.18 97.2L428.38 95.6C426.996 94.5617 426.246 93.2442 426.075 91.5971L424.086 91.8029ZM427.18 97.2C428.981 98.5506 431.168 99.2 433.68 99.2V97.2C431.526 97.2 429.78 96.6494 428.38 95.6L427.18 97.2ZM433.68 99.2C435.917 99.2 437.787 98.7845 439.157 97.817L438.004 96.183C437.108 96.8155 435.711 97.2 433.68 97.2V99.2ZM439.166 97.8107C440.593 96.78 441.38 95.3934 441.38 93.7H439.38C439.38 94.6733 438.968 95.4866 437.995 96.1893L439.166 97.8107ZM441.38 93.7C441.38 92.7168 441.121 91.8162 440.569 91.0438C440.023 90.2796 439.237 89.7045 438.283 89.2847L437.478 91.1153C438.19 91.4288 438.654 91.8037 438.942 92.2062C439.223 92.6005 439.38 93.0832 439.38 93.7H441.38ZM438.313 89.2985C436.55 88.4522 433.767 87.566 430.023 86.6299L429.538 88.5701C433.26 89.5007 435.878 90.3478 437.448 91.1015L438.313 89.2985ZM430.008 86.6262C426.033 85.6988 422.744 84.7435 420.132 83.7637L419.429 85.6363C422.15 86.6565 425.528 87.6346 429.553 88.5738L430.008 86.6262ZM420.152 83.7715C417.634 82.7644 415.463 81.2243 413.632 79.1399L412.129 80.4601C414.164 82.7757 416.594 84.5023 419.409 85.6285L420.152 83.7715ZM413.641 79.1511C411.901 77.1106 410.98 74.3293 410.98 70.7H408.98C408.98 74.6707 409.993 77.956 412.12 80.4489L413.641 79.1511ZM410.98 70.7C410.98 67.6924 411.791 64.9863 413.413 62.5547L411.748 61.4453C409.903 64.2137 408.98 67.3076 408.98 70.7H410.98ZM413.409 62.5595C415.09 60.0698 417.533 58.081 420.792 56.6116L419.969 54.7884C416.428 56.3857 413.671 58.5968 411.752 61.4405L413.409 62.5595ZM420.785 56.6145C424.097 55.1497 428.053 54.4 432.68 54.4V52.4C427.841 52.4 423.598 53.1836 419.976 54.7855L420.785 56.6145ZM432.68 54.4C439.519 54.4 444.759 56.0915 448.526 59.3557L449.835 57.8443C445.602 54.1752 439.842 52.4 432.68 52.4V54.4ZM448.532 59.361C452.387 62.6474 454.61 67.004 455.186 72.5041L457.175 72.2959C456.551 66.3294 454.107 61.486 449.829 57.839L448.532 59.361ZM456.18 71.4H440.38V73.4H456.18V71.4ZM441.371 72.2634C441.071 70.0858 440.078 68.3113 438.392 67.0087L437.169 68.5913C438.417 69.5553 439.157 70.8475 439.39 72.5366L441.371 72.2634ZM438.41 67.0228C436.785 65.7074 434.674 65.1 432.18 65.1V67.1C434.353 67.1 435.976 67.6259 437.151 68.5772L438.41 67.0228ZM432.18 65.1C430.067 65.1 428.288 65.5197 426.98 66.5L428.18 68.1C429.007 67.4803 430.294 67.1 432.18 67.1V65.1ZM427.014 66.476C425.666 67.4024 424.98 68.7492 424.98 70.4H426.98C426.98 69.3841 427.361 68.6642 428.147 68.124L427.014 66.476ZM424.98 70.4C424.98 71.3836 425.24 72.287 425.784 73.0704C426.322 73.8455 427.099 74.4462 428.048 74.9015L428.913 73.0985C428.195 72.7538 427.722 72.3545 427.427 71.9296C427.138 71.513 426.98 71.0164 426.98 70.4H424.98ZM428.061 74.908C429.894 75.754 432.646 76.5722 436.264 77.3762L436.697 75.4238C433.115 74.6278 430.533 73.846 428.9 73.092L428.061 74.908ZM436.231 77.3683C440.34 78.4287 443.659 79.4822 446.201 80.5252L446.96 78.6748C444.302 77.5844 440.888 76.5046 436.73 75.4317L436.231 77.3683ZM446.221 80.5333C448.648 81.4665 450.777 83.0248 452.61 85.238L454.15 83.962C452.118 81.5085 449.713 79.7335 446.939 78.6666L446.221 80.5333ZM452.631 85.2616C454.434 87.3049 455.417 90.1203 455.481 93.8172L457.48 93.7828C457.411 89.7464 456.327 86.4284 454.13 83.9384L452.631 85.2616ZM455.48 93.8C455.48 96.862 454.61 99.5905 452.868 102.017L454.493 103.183C456.484 100.41 457.48 97.2713 457.48 93.8H455.48ZM452.865 102.021C451.193 104.374 448.723 106.269 445.391 107.679L446.17 109.521C449.771 107.997 452.568 105.893 454.496 103.179L452.865 102.021ZM445.384 107.682C442.134 109.084 438.307 109.8 433.88 109.8V111.8C438.52 111.8 442.627 111.049 446.177 109.518L445.384 107.682Z" fill="#EFEAD8"/>
<path d="M65.904 132.096H40.752L36.72 144H19.536L43.92 76.608H62.928L87.312 144H69.936L65.904 132.096ZM61.68 119.424L53.328 94.752L45.072 119.424H61.68ZM111.149 98.016C112.685 95.52 114.893 93.504 117.773 91.968C120.653 90.432 123.949 89.664 127.661 89.664C132.077 89.664 136.077 90.784 139.661 93.024C143.245 95.264 146.061 98.464 148.109 102.624C150.221 106.784 151.277 111.616 151.277 117.12C151.277 122.624 150.221 127.488 148.109 131.712C146.061 135.872 143.245 139.104 139.661 141.408C136.077 143.648 132.077 144.768 127.661 144.768C123.885 144.768 120.589 144.032 117.773 142.56C114.957 141.024 112.749 139.008 111.149 136.512V144H94.7333V72.96H111.149V98.016ZM134.573 117.12C134.573 113.024 133.421 109.824 131.117 107.52C128.877 105.152 126.093 103.968 122.765 103.968C119.501 103.968 116.717 105.152 114.413 107.52C112.173 109.888 111.053 113.12 111.053 117.216C111.053 121.312 112.173 124.544 114.413 126.912C116.717 129.28 119.501 130.464 122.765 130.464C126.029 130.464 128.813 129.28 131.117 126.912C133.421 124.48 134.573 121.216 134.573 117.12ZM184.274 144.768C179.026 144.768 174.29 143.648 170.066 141.408C165.906 139.168 162.61 135.968 160.178 131.808C157.81 127.648 156.626 122.784 156.626 117.216C156.626 111.712 157.842 106.88 160.273 102.72C162.706 98.496 166.034 95.264 170.258 93.024C174.482 90.784 179.218 89.664 184.466 89.664C189.714 89.664 194.45 90.784 198.674 93.024C202.898 95.264 206.226 98.496 208.658 102.72C211.09 106.88 212.306 111.712 212.306 117.216C212.306 122.72 211.058 127.584 208.562 131.808C206.13 135.968 202.77 139.168 198.482 141.408C194.258 143.648 189.522 144.768 184.274 144.768ZM184.274 130.56C187.41 130.56 190.066 129.408 192.242 127.104C194.482 124.8 195.602 121.504 195.602 117.216C195.602 112.928 194.514 109.632 192.338 107.328C190.226 105.024 187.602 103.872 184.466 103.872C181.266 103.872 178.61 105.024 176.498 107.328C174.386 109.568 173.33 112.864 173.33 117.216C173.33 121.504 174.354 124.8 176.402 127.104C178.514 129.408 181.138 130.56 184.274 130.56ZM273.911 90.432V144H257.495V136.704C255.831 139.072 253.559 140.992 250.679 142.464C247.863 143.872 244.727 144.576 241.271 144.576C237.175 144.576 233.559 143.68 230.423 141.888C227.287 140.032 224.855 137.376 223.127 133.92C221.399 130.464 220.535 126.4 220.535 121.728V90.432H236.855V119.52C236.855 123.104 237.783 125.888 239.639 127.872C241.495 129.856 243.991 130.848 247.127 130.848C250.327 130.848 252.855 129.856 254.711 127.872C256.567 125.888 257.495 123.104 257.495 119.52V90.432H273.911ZM315.558 130.08V144H307.206C301.254 144 296.614 142.56 293.286 139.68C289.958 136.736 288.294 131.968 288.294 125.376V104.064H281.766V90.432H288.294V77.376H304.71V90.432H315.462V104.064H304.71V125.568C304.71 127.168 305.094 128.32 305.862 129.024C306.63 129.728 307.91 130.08 309.702 130.08H315.558ZM361.174 76.608V116.928C361.174 120.96 362.166 124.064 364.15 126.24C366.134 128.416 369.046 129.504 372.886 129.504C376.726 129.504 379.67 128.416 381.718 126.24C383.766 124.064 384.79 120.96 384.79 116.928V76.608H401.206V116.832C401.206 122.848 399.926 127.936 397.366 132.096C394.806 136.256 391.35 139.392 386.998 141.504C382.71 143.616 377.91 144.672 372.598 144.672C367.286 144.672 362.518 143.648 358.294 141.6C354.134 139.488 350.838 136.352 348.406 132.192C345.974 127.968 344.758 122.848 344.758 116.832V76.608H361.174ZM434.525 144.768C429.853 144.768 425.693 143.968 422.045 142.368C418.397 140.768 415.517 138.592 413.405 135.84C411.293 133.024 410.109 129.888 409.853 126.432H426.077C426.269 128.288 427.133 129.792 428.669 130.944C430.205 132.096 432.093 132.672 434.333 132.672C436.381 132.672 437.949 132.288 439.037 131.52C440.189 130.688 440.765 129.632 440.765 128.352C440.765 126.816 439.965 125.696 438.365 124.992C436.765 124.224 434.173 123.392 430.589 122.496C426.749 121.6 423.549 120.672 420.989 119.712C418.429 118.688 416.221 117.12 414.365 115.008C412.509 112.832 411.581 109.92 411.581 106.272C411.581 103.2 412.413 100.416 414.077 97.92C415.805 95.36 418.301 93.344 421.565 91.872C424.893 90.4 428.829 89.664 433.373 89.664C440.093 89.664 445.373 91.328 449.213 94.656C453.117 97.984 455.357 102.4 455.933 107.904H440.765C440.509 106.048 439.677 104.576 438.269 103.488C436.925 102.4 435.133 101.856 432.893 101.856C430.973 101.856 429.501 102.24 428.477 103.008C427.453 103.712 426.941 104.704 426.941 105.984C426.941 107.52 427.741 108.672 429.341 109.44C431.005 110.208 433.565 110.976 437.021 111.744C440.989 112.768 444.221 113.792 446.717 114.816C449.213 115.776 451.389 117.376 453.245 119.616C455.165 121.792 456.157 124.736 456.221 128.448C456.221 131.584 455.325 134.4 453.533 136.896C451.805 139.328 449.277 141.248 445.949 142.656C442.685 144.064 438.877 144.768 434.525 144.768Z" fill="white"/>
</svg>
