<svg width="404" height="188" viewBox="0 0 404 188" fill="none" xmlns="http://www.w3.org/2000/svg">
<path d="M48.7 74L48.4159 73.0412L48.4916 74.978L48.7 74ZM58.5 80.1L57.708 80.7105L57.7143 80.7186L58.5 80.1ZM56 104.9L56.6414 105.667L56.6426 105.666L56 104.9ZM6.2 110H5.2V111H6.2V110ZM6.2 39.8V38.8H5.2V39.8H6.2ZM54.5 44.7L53.8674 45.4746L53.8737 45.4796L54.5 44.7ZM57.3 68.3L56.521 67.673L56.5163 67.6788L56.5117 67.6847L57.3 68.3ZM23.3 68.2H22.3V69.2H23.3V68.2ZM40.9 66.4L41.5332 67.174L41.5369 67.171L40.9 66.4ZM40.9 55.4L40.2464 56.1568L40.2547 56.164L40.2631 56.171L40.9 55.4ZM23.3 53.5V52.5H22.3V53.5H23.3ZM42.5 94.3L43.1369 95.071L43.1402 95.0682L42.5 94.3ZM42.4 82.8L41.7415 83.5526L41.7491 83.5592L41.7568 83.5657L42.4 82.8ZM23.3 80.7V79.7H22.3V80.7H23.3ZM23.3 96.2H22.3V97.2H23.3V96.2ZM48.4916 74.978C52.3337 75.7968 55.3907 77.7042 57.708 80.7105L59.292 79.4895C56.676 76.0958 53.1997 73.9365 48.9084 73.022L48.4916 74.978ZM57.7143 80.7186C60.0392 83.6718 61.2 87.0529 61.2 90.9H63.2C63.2 86.6138 61.8942 82.7948 59.2857 79.4814L57.7143 80.7186ZM61.2 90.9C61.2 96.5004 59.2426 100.875 55.3574 104.134L56.6426 105.666C61.0241 101.991 63.2 97.033 63.2 90.9H61.2ZM55.3586 104.133C51.5302 107.334 46.0882 109 38.9 109V111C46.3785 111 52.3365 109.266 56.6414 105.667L55.3586 104.133ZM38.9 109H6.2V111H38.9V109ZM7.2 110V39.8H5.2V110H7.2ZM6.2 40.8H37.8V38.8H6.2V40.8ZM37.8 40.8C44.7899 40.8 50.1035 42.4006 53.8675 45.4745L55.1325 43.9255C50.8965 40.466 45.0768 38.8 37.8 38.8V40.8ZM53.8737 45.4796C57.6849 48.541 59.6 52.6775 59.6 58H61.6C61.6 52.1225 59.4485 47.3923 55.1263 43.9204L53.8737 45.4796ZM59.6 58C59.6 61.9476 58.5535 65.1478 56.521 67.673L58.079 68.927C60.4465 65.9856 61.6 62.319 61.6 58H59.6ZM56.5117 67.6847C54.5173 70.24 51.8336 72.0286 48.4159 73.0412L48.9841 74.9588C52.7664 73.8381 55.816 71.8266 58.0883 68.9153L56.5117 67.6847ZM23.3 69.2H34.5V67.2H23.3V69.2ZM34.5 69.2C37.4243 69.2 39.8199 68.5757 41.5332 67.174L40.2668 65.626C39.0467 66.6242 37.1757 67.2 34.5 67.2V69.2ZM41.5369 67.171C43.3479 65.6749 44.2 63.5303 44.2 60.9H42.2C42.2 63.0697 41.5187 64.5918 40.2631 65.629L41.5369 67.171ZM44.2 60.9C44.2 58.2697 43.3479 56.1251 41.5369 54.629L40.2631 56.171C41.5187 57.2082 42.2 58.7303 42.2 60.9H44.2ZM41.5536 54.6432C39.8392 53.1625 37.4352 52.5 34.5 52.5V54.5C37.1648 54.5 39.0275 55.1041 40.2464 56.1568L41.5536 54.6432ZM34.5 52.5H23.3V54.5H34.5V52.5ZM22.3 53.5V68.2H24.3V53.5H22.3ZM35.9 97.2C38.8989 97.2 41.3599 96.5389 43.1369 95.071L41.8631 93.529C40.5735 94.5944 38.6344 95.2 35.9 95.2V97.2ZM43.1402 95.0682C45.011 93.5092 45.9 91.3028 45.9 88.6H43.9C43.9 90.8305 43.189 92.4241 41.8598 93.5318L43.1402 95.0682ZM45.9 88.6C45.9 85.8821 44.9678 83.651 43.0432 82.0343L41.7568 83.5657C43.1655 84.749 43.9 86.3846 43.9 88.6H45.9ZM43.0585 82.0474C41.221 80.4396 38.7237 79.7 35.7 79.7V81.7C38.4096 81.7 40.379 82.3604 41.7415 83.5526L43.0585 82.0474ZM35.7 79.7H23.3V81.7H35.7V79.7ZM22.3 80.7V96.2H24.3V80.7H22.3ZM23.3 97.2H35.9V95.2H23.3V97.2ZM73.318 45.8L72.6238 46.5198L72.6369 46.5324L72.6504 46.5446L73.318 45.8ZM73.318 32.6L73.9984 33.3328L73.9994 33.3319L73.318 32.6ZM87.918 32.6L87.2238 33.3198L87.2369 33.3324L87.2504 33.3446L87.918 32.6ZM87.918 45.8L88.5984 46.5328L88.5994 46.5319L87.918 45.8ZM89.218 54.2H90.218V53.2H89.218V54.2ZM89.218 110V111H90.218V110H89.218ZM72.118 110H71.118V111H72.118V110ZM72.118 54.2V53.2H71.118V54.2H72.118ZM80.718 47.4C77.9236 47.4 75.7071 46.599 73.9855 45.0554L72.6504 46.5446C74.7955 48.4677 77.5124 49.4 80.718 49.4V47.4ZM74.0121 45.0802C72.3415 43.4692 71.518 41.5293 71.518 39.2H69.518C69.518 42.0707 70.5611 44.5308 72.6238 46.5198L74.0121 45.0802ZM71.518 39.2C71.518 36.7967 72.346 34.8671 73.9984 33.3328L72.6375 31.8672C70.5566 33.7995 69.518 36.2699 69.518 39.2H71.518ZM73.9994 33.3319C75.7223 31.7278 77.9339 30.9 80.718 30.9V28.9C77.502 28.9 74.7803 29.8722 72.6366 31.8681L73.9994 33.3319ZM80.718 30.9C83.4292 30.9 85.5685 31.7236 87.2238 33.3198L88.6121 31.8802C86.5341 29.8764 83.8734 28.9 80.718 28.9V30.9ZM87.2504 33.3446C88.9658 34.8825 89.818 36.8087 89.818 39.2H91.818C91.818 36.2579 90.7368 33.7842 88.5855 31.8554L87.2504 33.3446ZM89.818 39.2C89.818 41.5174 88.9704 43.4538 87.2366 45.0681L88.5994 46.5319C90.7322 44.5462 91.818 42.0826 91.818 39.2H89.818ZM87.2375 45.0672C85.5838 46.6028 83.4399 47.4 80.718 47.4V49.4C83.8627 49.4 86.5188 48.4639 88.5984 46.5328L87.2375 45.0672ZM88.218 54.2V110H90.218V54.2H88.218ZM89.218 109H72.118V111H89.218V109ZM73.118 110V54.2H71.118V110H73.118ZM72.118 55.2H89.218V53.2H72.118V55.2ZM112.21 107.3L111.736 108.18L111.742 108.183L112.21 107.3ZM101.91 97.3L101.041 97.7947L101.047 97.8047L101.91 97.3ZM102.01 67L102.873 67.5047L102.877 67.499L102.01 67ZM112.41 56.9L112.879 57.7835L112.879 57.7835L112.41 56.9ZM142.01 56.9L141.542 57.7835L141.542 57.7835L142.01 56.9ZM152.41 67L151.544 67.499L151.547 67.5047L152.41 67ZM152.31 97.3L151.449 96.7913L151.447 96.7953L152.31 97.3ZM141.81 107.3L141.347 106.414L141.342 106.417L141.81 107.3ZM135.31 92.4L134.593 91.7029L134.588 91.7081L134.583 91.7134L135.31 92.4ZM135.41 71.8L134.673 72.4757L134.678 72.4812L134.683 72.4866L135.41 71.8ZM118.91 71.8L119.638 72.4861L119.647 72.4757L118.91 71.8ZM118.81 92.4L118.063 93.0644L118.068 93.0701L118.073 93.0757L118.81 92.4ZM127.01 109.8C121.691 109.8 116.921 108.666 112.679 106.417L111.742 108.183C116.3 110.601 121.396 111.8 127.01 111.8V109.8ZM112.684 106.42C108.516 104.175 105.216 100.973 102.773 96.7953L101.047 97.8047C103.671 102.293 107.238 105.758 111.736 108.18L112.684 106.42ZM102.779 96.8053C100.411 92.6457 99.2102 87.7551 99.2102 82.1H97.2102C97.2102 88.0449 98.4755 93.2876 101.041 97.7947L102.779 96.8053ZM99.2102 82.1C99.2102 76.5184 100.442 71.6642 102.873 67.5047L101.147 66.4953C98.5119 71.0025 97.2102 76.2149 97.2102 82.1H99.2102ZM102.877 67.499C105.318 63.2587 108.648 60.0268 112.879 57.7835L111.942 56.0165C107.372 58.4398 103.769 61.9413 101.144 66.501L102.877 67.499ZM112.879 57.7835C117.121 55.5339 121.891 54.4 127.21 54.4V52.4C121.596 52.4 116.5 53.5994 111.942 56.0165L112.879 57.7835ZM127.21 54.4C132.53 54.4 137.3 55.5339 141.542 57.7835L142.479 56.0165C137.921 53.5994 132.824 52.4 127.21 52.4V54.4ZM141.542 57.7835C145.772 60.0268 149.102 63.2587 151.544 67.499L153.277 66.501C150.651 61.9413 147.048 58.4398 142.479 56.0165L141.542 57.7835ZM151.547 67.5047C153.979 71.6642 155.21 76.5184 155.21 82.1H157.21C157.21 76.2149 155.908 71.0025 153.273 66.4953L151.547 67.5047ZM155.21 82.1C155.21 87.6767 153.947 92.5635 151.449 96.7913L153.171 97.8087C155.873 93.2365 157.21 87.99 157.21 82.1H155.21ZM151.447 96.7953C149.009 100.966 145.648 104.167 141.347 106.414L142.273 108.186C146.906 105.766 150.545 102.301 153.173 97.8047L151.447 96.7953ZM141.342 106.417C137.1 108.666 132.33 109.8 127.01 109.8V111.8C132.624 111.8 137.721 110.601 142.279 108.183L141.342 106.417ZM127.01 97C130.555 97 133.584 95.6842 136.037 93.0866L134.583 91.7134C132.503 93.9158 129.998 95 127.01 95V97ZM136.027 93.0971C138.596 90.4548 139.81 86.7375 139.81 82.1H137.81C137.81 86.3959 136.691 89.5452 134.593 91.7029L136.027 93.0971ZM139.81 82.1C139.81 77.4698 138.633 73.7565 136.137 71.1134L134.683 72.4866C136.72 74.6435 137.81 77.7968 137.81 82.1H139.81ZM136.147 71.1243C133.757 68.5169 130.756 67.2 127.21 67.2V69.2C130.198 69.2 132.663 70.2831 134.673 72.4757L136.147 71.1243ZM127.21 67.2C123.604 67.2 120.567 68.5121 118.173 71.1243L119.647 72.4757C121.653 70.2879 124.15 69.2 127.21 69.2V67.2ZM118.183 71.114C115.747 73.6977 114.61 77.4174 114.61 82.1H116.61C116.61 77.716 117.674 74.569 119.638 72.486L118.183 71.114ZM114.61 82.1C114.61 86.7158 115.713 90.4206 118.063 93.0644L119.558 91.7356C117.641 89.5794 116.61 86.4175 116.61 82.1H114.61ZM118.073 93.0757C120.463 95.6831 123.464 97 127.01 97V95C124.023 95 121.557 93.9169 119.547 91.7243L118.073 93.0757ZM165.082 66.9L164.19 66.4473L164.185 66.4583L165.082 66.9ZM173.982 56.9L174.512 57.748L174.512 57.748L173.982 56.9ZM196.482 55.7L196.027 56.5905L196.035 56.5944L196.482 55.7ZM203.682 61.9L202.85 62.4547L204.682 65.2028V61.9H203.682ZM203.682 36V35H202.682V36H203.682ZM220.782 36H221.782V35H220.782V36ZM220.782 110V111H221.782V110H220.782ZM203.682 110H202.682V111H203.682V110ZM203.682 102H204.682V98.3897L202.825 101.486L203.682 102ZM196.782 108.4L196.311 107.518L196.303 107.522L196.782 108.4ZM173.982 107.3L173.441 108.141L173.452 108.148L173.982 107.3ZM165.082 97.2L164.182 97.6363L164.186 97.6445L164.19 97.6527L165.082 97.2ZM200.082 72L199.355 72.6873L199.365 72.6974L200.082 72ZM182.782 72L182.065 71.3026L182.065 71.3029L182.782 72ZM182.782 92.2L182.046 92.8775L182.056 92.8875L182.065 92.8974L182.782 92.2ZM200.082 92.2L199.365 91.5026L199.356 91.5128L200.082 92.2ZM162.882 82C162.882 76.3914 163.925 71.5142 165.979 67.3417L164.185 66.4583C161.972 70.9525 160.882 76.1419 160.882 82H162.882ZM165.974 67.3527C168.1 63.1642 170.949 59.9751 174.512 57.748L173.452 56.052C169.549 58.4916 166.464 61.9691 164.19 66.4473L165.974 67.3527ZM174.512 57.748C178.079 55.5186 182.061 54.4 186.482 54.4V52.4C181.703 52.4 177.352 53.6148 173.452 56.052L174.512 57.748ZM186.482 54.4C190.005 54.4 193.18 55.1353 196.027 56.5904L196.937 54.8096C193.784 53.198 190.293 52.4 186.482 52.4V54.4ZM196.035 56.5944C198.961 58.0577 201.222 60.0133 202.85 62.4547L204.514 61.3453C202.675 58.5867 200.136 56.409 196.929 54.8056L196.035 56.5944ZM204.682 61.9V36H202.682V61.9H204.682ZM203.682 37H220.782V35H203.682V37ZM219.782 36V110H221.782V36H219.782ZM220.782 109H203.682V111H220.782V109ZM204.682 110V102H202.682V110H204.682ZM202.825 101.486C201.326 103.982 199.167 105.995 196.311 107.518L197.253 109.282C200.397 107.605 202.838 105.351 204.54 102.514L202.825 101.486ZM196.303 107.522C193.541 109.029 190.278 109.8 186.482 109.8V111.8C190.553 111.8 194.157 110.971 197.261 109.278L196.303 107.522ZM186.482 109.8C182.061 109.8 178.079 108.681 174.512 106.452L173.452 108.148C177.352 110.585 181.703 111.8 186.482 111.8V109.8ZM174.523 106.459C170.953 104.164 168.101 100.938 165.974 96.7473L164.19 97.6527C166.463 102.129 169.545 105.636 173.441 108.141L174.523 106.459ZM165.982 96.7637C163.925 92.5213 162.882 87.6081 162.882 82H160.882C160.882 87.8585 161.973 93.0787 164.182 97.6363L165.982 96.7637ZM204.682 82.1C204.682 77.6387 203.422 73.9984 200.799 71.3026L199.365 72.6974C201.542 74.9349 202.682 78.0279 202.682 82.1H204.682ZM200.809 71.3128C198.286 68.6462 195.156 67.3 191.482 67.3V69.3C194.608 69.3 197.211 70.4205 199.356 72.6872L200.809 71.3128ZM191.482 67.3C187.808 67.3 184.651 68.6452 182.065 71.3026L183.499 72.6974C185.713 70.4215 188.356 69.3 191.482 69.3V67.3ZM182.065 71.3029C179.504 73.9371 178.282 77.5477 178.282 82H180.282C180.282 77.919 181.393 74.8629 183.499 72.6971L182.065 71.3029ZM178.282 82C178.282 86.455 179.505 90.118 182.046 92.8775L183.518 91.5225C181.392 89.2153 180.282 86.0784 180.282 82H178.282ZM182.065 92.8974C184.651 95.5548 187.808 96.9 191.482 96.9V94.9C188.356 94.9 185.713 93.7785 183.499 91.5026L182.065 92.8974ZM191.482 96.9C195.156 96.9 198.286 95.5538 200.809 92.8872L199.356 91.5128C197.211 93.7795 194.608 94.9 191.482 94.9V96.9ZM200.799 92.8974C203.422 90.2016 204.682 86.5613 204.682 82.1H202.682C202.682 86.1721 201.542 89.2651 199.365 91.5026L200.799 92.8974ZM232.953 66.9L232.061 66.4473L232.056 66.4583L232.953 66.9ZM241.853 56.9L242.383 57.748L242.383 57.748L241.853 56.9ZM264.653 55.8L264.174 56.6779L264.183 56.6823L264.653 55.8ZM271.553 62.1L270.701 62.6241L272.553 65.633V62.1H271.553ZM271.553 54.2V53.2H270.553V54.2H271.553ZM288.653 54.2H289.653V53.2H288.653V54.2ZM288.653 110V111H289.653V110H288.653ZM271.553 110H270.553V111H271.553V110ZM271.553 102.1H272.553V98.687L270.711 101.56L271.553 102.1ZM264.553 108.4L264.083 107.518L264.074 107.522L264.553 108.4ZM241.853 107.3L241.312 108.141L241.323 108.148L241.853 107.3ZM232.953 97.2L232.053 97.6363L232.057 97.6445L232.061 97.6527L232.953 97.2ZM267.953 72L267.227 72.6873L267.236 72.6974L267.953 72ZM250.653 72L249.936 71.3026L249.936 71.3029L250.653 72ZM250.653 92.2L249.918 92.8775L249.927 92.8875L249.936 92.8974L250.653 92.2ZM267.953 92.2L267.236 91.5026L267.227 91.5128L267.953 92.2ZM230.753 82C230.753 76.3914 231.796 71.5142 233.85 67.3417L232.056 66.4583C229.843 70.9525 228.753 76.1419 228.753 82H230.753ZM233.845 67.3527C235.971 63.1642 238.82 59.9751 242.383 57.748L241.323 56.052C237.42 58.4916 234.335 61.9691 232.061 66.4473L233.845 67.3527ZM242.383 57.748C245.95 55.5186 249.932 54.4 254.353 54.4V52.4C249.575 52.4 245.223 53.6148 241.323 56.052L242.383 57.748ZM254.353 54.4C258.149 54.4 261.412 55.1711 264.174 56.6779L265.132 54.9221C262.028 53.2289 258.424 52.4 254.353 52.4V54.4ZM264.183 56.6823C267.044 58.2086 269.205 60.1919 270.701 62.6241L272.405 61.5759C270.702 58.8081 268.262 56.5914 265.124 54.9176L264.183 56.6823ZM272.553 62.1V54.2H270.553V62.1H272.553ZM271.553 55.2H288.653V53.2H271.553V55.2ZM287.653 54.2V110H289.653V54.2H287.653ZM288.653 109H271.553V111H288.653V109ZM272.553 110V102.1H270.553V110H272.553ZM270.711 101.56C269.146 104.002 266.947 105.99 264.083 107.518L265.024 109.282C268.159 107.61 270.627 105.398 272.395 102.64L270.711 101.56ZM264.074 107.522C261.312 109.029 258.049 109.8 254.253 109.8V111.8C258.324 111.8 261.928 110.971 265.032 109.278L264.074 107.522ZM254.253 109.8C249.901 109.8 245.953 108.683 242.383 106.452L241.323 108.148C245.22 110.584 249.538 111.8 254.253 111.8V109.8ZM242.394 106.459C238.824 104.164 235.972 100.938 233.845 96.7473L232.061 97.6527C234.334 102.129 237.416 105.636 241.312 108.141L242.394 106.459ZM233.853 96.7637C231.796 92.5213 230.753 87.6081 230.753 82H228.753C228.753 87.8585 229.844 93.0787 232.053 97.6363L233.853 96.7637ZM272.553 82.1C272.553 77.6387 271.293 73.9984 268.67 71.3026L267.236 72.6974C269.413 74.9349 270.553 78.0279 270.553 82.1H272.553ZM268.68 71.3128C266.157 68.6462 263.028 67.3 259.353 67.3V69.3C262.479 69.3 265.082 70.4205 267.227 72.6872L268.68 71.3128ZM259.353 67.3C255.679 67.3 252.522 68.6452 249.936 71.3026L251.37 72.6974C253.584 70.4215 256.227 69.3 259.353 69.3V67.3ZM249.936 71.3029C247.375 73.9371 246.153 77.5477 246.153 82H248.153C248.153 77.919 249.264 74.8629 251.37 72.6971L249.936 71.3029ZM246.153 82C246.153 86.455 247.376 90.118 249.918 92.8775L251.389 91.5225C249.264 89.2153 248.153 86.0784 248.153 82H246.153ZM249.936 92.8974C252.522 95.5548 255.679 96.9 259.353 96.9V94.9C256.227 94.9 253.584 93.7785 251.37 91.5026L249.936 92.8974ZM259.353 96.9C263.028 96.9 266.157 95.5538 268.68 92.8872L267.227 91.5128C265.082 93.7795 262.479 94.9 259.353 94.9V96.9ZM268.67 92.8974C271.293 90.2016 272.553 86.5613 272.553 82.1H270.553C270.553 86.1721 269.413 89.2651 267.236 91.5026L268.67 92.8974ZM332.124 95.5H333.124V94.5H332.124V95.5ZM332.124 110V111H333.124V110H332.124ZM308.924 105.5L308.262 106.249L308.27 106.256L308.924 105.5ZM303.724 68.4H304.724V67.4H303.724V68.4ZM296.924 68.4H295.924V69.4H296.924V68.4ZM296.924 54.2V53.2H295.924V54.2H296.924ZM303.724 54.2V55.2H304.724V54.2H303.724ZM303.724 40.6V39.6H302.724V40.6H303.724ZM320.824 40.6H321.824V39.6H320.824V40.6ZM320.824 54.2H319.824V55.2H320.824V54.2ZM332.024 54.2H333.024V53.2H332.024V54.2ZM332.024 68.4V69.4H333.024V68.4H332.024ZM320.824 68.4V67.4H319.824V68.4H320.824ZM322.024 94.4L321.348 95.1372L321.348 95.1372L322.024 94.4ZM331.124 95.5V110H333.124V95.5H331.124ZM332.124 109H323.424V111H332.124V109ZM323.424 109C317.379 109 312.808 107.539 309.579 104.744L308.27 106.256C311.974 109.461 317.069 111 323.424 111V109ZM309.587 104.751C306.421 101.951 304.724 97.3204 304.724 90.6H302.724C302.724 97.6129 304.494 102.916 308.262 106.249L309.587 104.751ZM304.724 90.6V68.4H302.724V90.6H304.724ZM303.724 67.4H296.924V69.4H303.724V67.4ZM297.924 68.4V54.2H295.924V68.4H297.924ZM296.924 55.2H303.724V53.2H296.924V55.2ZM304.724 54.2V40.6H302.724V54.2H304.724ZM303.724 41.6H320.824V39.6H303.724V41.6ZM319.824 40.6V54.2H321.824V40.6H319.824ZM320.824 55.2H332.024V53.2H320.824V55.2ZM331.024 54.2V68.4H333.024V54.2H331.024ZM332.024 67.4H320.824V69.4H332.024V67.4ZM319.824 68.4V90.8H321.824V68.4H319.824ZM319.824 90.8C319.824 92.598 320.253 94.1329 321.348 95.1372L322.7 93.6628C322.195 93.2004 321.824 92.3354 321.824 90.8H319.824ZM321.348 95.1372C322.427 96.1255 324.073 96.5 326.024 96.5V94.5C324.242 94.5 323.222 94.1412 322.7 93.6628L321.348 95.1372ZM326.024 96.5H332.124V94.5H326.024V96.5ZM341.449 66.9L340.557 66.4473L340.552 66.4583L341.449 66.9ZM350.349 56.9L350.879 57.748L350.879 57.748L350.349 56.9ZM373.149 55.8L372.67 56.6779L372.679 56.6823L373.149 55.8ZM380.049 62.1L379.198 62.6241L381.049 65.633V62.1H380.049ZM380.049 54.2V53.2H379.049V54.2H380.049ZM397.149 54.2H398.149V53.2H397.149V54.2ZM397.149 110V111H398.149V110H397.149ZM380.049 110H379.049V111H380.049V110ZM380.049 102.1H381.049V98.687L379.207 101.56L380.049 102.1ZM373.049 108.4L372.579 107.518L372.57 107.522L373.049 108.4ZM350.349 107.3L349.808 108.141L349.819 108.148L350.349 107.3ZM341.449 97.2L340.549 97.6363L340.553 97.6445L340.558 97.6527L341.449 97.2ZM376.449 72L375.723 72.6873L375.732 72.6974L376.449 72ZM359.149 72L358.432 71.3026L358.432 71.3029L359.149 72ZM359.149 92.2L358.414 92.8775L358.423 92.8875L358.432 92.8974L359.149 92.2ZM376.449 92.2L375.732 91.5026L375.723 91.5128L376.449 92.2ZM339.249 82C339.249 76.3914 340.292 71.5142 342.346 67.3417L340.552 66.4583C338.34 70.9525 337.249 76.1419 337.249 82H339.249ZM342.341 67.3527C344.467 63.1642 347.316 59.9751 350.879 57.748L349.819 56.052C345.916 58.4916 342.831 61.9691 340.558 66.4473L342.341 67.3527ZM350.879 57.748C354.446 55.5186 358.428 54.4 362.849 54.4V52.4C358.071 52.4 353.719 53.6148 349.819 56.052L350.879 57.748ZM362.849 54.4C366.645 54.4 369.908 55.1711 372.67 56.6779L373.628 54.9221C370.524 53.2289 366.92 52.4 362.849 52.4V54.4ZM372.679 56.6823C375.54 58.2086 377.701 60.1919 379.198 62.6241L380.901 61.5759C379.198 58.8081 376.758 56.5914 373.62 54.9176L372.679 56.6823ZM381.049 62.1V54.2H379.049V62.1H381.049ZM380.049 55.2H397.149V53.2H380.049V55.2ZM396.149 54.2V110H398.149V54.2H396.149ZM397.149 109H380.049V111H397.149V109ZM381.049 110V102.1H379.049V110H381.049ZM379.207 101.56C377.642 104.002 375.443 105.99 372.579 107.518L373.52 109.282C376.655 107.61 379.123 105.398 380.891 102.64L379.207 101.56ZM372.57 107.522C369.808 109.029 366.545 109.8 362.749 109.8V111.8C366.82 111.8 370.424 110.971 373.528 109.278L372.57 107.522ZM362.749 109.8C358.397 109.8 354.449 108.683 350.879 106.452L349.819 108.148C353.716 110.584 358.034 111.8 362.749 111.8V109.8ZM350.89 106.459C347.32 104.164 344.468 100.938 342.341 96.7473L340.558 97.6527C342.83 102.129 345.912 105.636 349.808 108.141L350.89 106.459ZM342.349 96.7637C340.292 92.5213 339.249 87.6081 339.249 82H337.249C337.249 87.8585 338.34 93.0787 340.549 97.6363L342.349 96.7637ZM381.049 82.1C381.049 77.6387 379.789 73.9984 377.166 71.3026L375.732 72.6974C377.91 74.9349 379.049 78.0279 379.049 82.1H381.049ZM377.176 71.3128C374.653 68.6462 371.524 67.3 367.849 67.3V69.3C370.975 69.3 373.579 70.4205 375.723 72.6872L377.176 71.3128ZM367.849 67.3C364.176 67.3 361.018 68.6452 358.432 71.3026L359.866 72.6974C362.08 70.4215 364.723 69.3 367.849 69.3V67.3ZM358.432 71.3029C355.871 73.9371 354.649 77.5477 354.649 82H356.649C356.649 77.919 357.761 74.8629 359.866 72.6971L358.432 71.3029ZM354.649 82C354.649 86.455 355.872 90.118 358.414 92.8775L359.885 91.5225C357.76 89.2153 356.649 86.0784 356.649 82H354.649ZM358.432 92.8974C361.018 95.5548 364.176 96.9 367.849 96.9V94.9C364.723 94.9 362.08 93.7785 359.866 91.5026L358.432 92.8974ZM367.849 96.9C371.524 96.9 374.653 95.5538 377.176 92.8872L375.723 91.5128C373.579 93.7795 370.975 94.9 367.849 94.9V96.9ZM377.166 92.8974C379.789 90.2016 381.049 86.5613 381.049 82.1H379.049C379.049 86.1721 377.91 89.2651 375.732 91.5026L377.166 92.8974Z" fill="#6D8B74"/>
<path d="M54.752 115.44C58.656 116.272 61.792 118.224 64.16 121.296C66.528 124.304 67.712 127.76 67.712 131.664C67.712 137.296 65.728 141.776 61.76 145.104C57.856 148.368 52.384 150 45.344 150H13.952V82.608H44.288C51.136 82.608 56.48 84.176 60.32 87.312C64.224 90.448 66.176 94.704 66.176 100.08C66.176 104.048 65.12 107.344 63.008 109.968C60.96 112.592 58.208 114.416 54.752 115.44ZM30.368 109.872H41.12C43.808 109.872 45.856 109.296 47.264 108.144C48.736 106.928 49.472 105.168 49.472 102.864C49.472 100.56 48.736 98.8 47.264 97.584C45.856 96.368 43.808 95.76 41.12 95.76H30.368V109.872ZM42.464 136.752C45.216 136.752 47.328 136.144 48.8 134.928C50.336 133.648 51.104 131.824 51.104 129.456C51.104 127.088 50.304 125.232 48.704 123.888C47.168 122.544 45.024 121.872 42.272 121.872H30.368V136.752H42.464ZM85.4893 90.864C82.6093 90.864 80.2413 90.032 78.3853 88.368C76.5933 86.64 75.6973 84.528 75.6973 82.032C75.6973 79.472 76.5933 77.36 78.3853 75.696C80.2413 73.968 82.6093 73.104 85.4893 73.104C88.3053 73.104 90.6093 73.968 92.4013 75.696C94.2573 77.36 95.1853 79.472 95.1853 82.032C95.1853 84.528 94.2573 86.64 92.4013 88.368C90.6093 90.032 88.3053 90.864 85.4893 90.864ZM93.6493 96.432V150H77.2333V96.432H93.6493ZM129.93 150.768C124.682 150.768 119.946 149.648 115.722 147.408C111.562 145.168 108.266 141.968 105.834 137.808C103.466 133.648 102.282 128.784 102.282 123.216C102.282 117.712 103.498 112.88 105.93 108.72C108.362 104.496 111.69 101.264 115.914 99.024C120.138 96.784 124.874 95.664 130.122 95.664C135.37 95.664 140.106 96.784 144.33 99.024C148.554 101.264 151.882 104.496 154.314 108.72C156.746 112.88 157.962 117.712 157.962 123.216C157.962 128.72 156.714 133.584 154.218 137.808C151.786 141.968 148.426 145.168 144.138 147.408C139.914 149.648 135.178 150.768 129.93 150.768ZM129.93 136.56C133.066 136.56 135.722 135.408 137.898 133.104C140.138 130.8 141.258 127.504 141.258 123.216C141.258 118.928 140.17 115.632 137.994 113.328C135.882 111.024 133.258 109.872 130.122 109.872C126.922 109.872 124.266 111.024 122.154 113.328C120.042 115.568 118.986 118.864 118.986 123.216C118.986 127.504 120.01 130.8 122.058 133.104C124.17 135.408 126.794 136.56 129.93 136.56ZM163.407 123.12C163.407 117.616 164.431 112.784 166.479 108.624C168.591 104.464 171.439 101.264 175.023 99.024C178.607 96.784 182.607 95.664 187.023 95.664C190.543 95.664 193.743 96.4 196.623 97.872C199.567 99.344 201.871 101.328 203.535 103.824V78.96H219.951V150H203.535V142.32C201.999 144.88 199.791 146.928 196.911 148.464C194.095 150 190.799 150.768 187.023 150.768C182.607 150.768 178.607 149.648 175.023 147.408C171.439 145.104 168.591 141.872 166.479 137.712C164.431 133.488 163.407 128.624 163.407 123.12ZM203.535 123.216C203.535 119.12 202.383 115.888 200.079 113.52C197.839 111.152 195.087 109.968 191.823 109.968C188.559 109.968 185.775 111.152 183.471 113.52C181.231 115.824 180.111 119.024 180.111 123.12C180.111 127.216 181.231 130.48 183.471 132.912C185.775 135.28 188.559 136.464 191.823 136.464C195.087 136.464 197.839 135.28 200.079 132.912C202.383 130.544 203.535 127.312 203.535 123.216ZM228.563 123.12C228.563 117.616 229.587 112.784 231.635 108.624C233.747 104.464 236.595 101.264 240.179 99.024C243.763 96.784 247.763 95.664 252.179 95.664C255.955 95.664 259.251 96.432 262.067 97.968C264.947 99.504 267.155 101.52 268.691 104.016V96.432H285.107V150H268.691V142.416C267.091 144.912 264.851 146.928 261.971 148.464C259.155 150 255.859 150.768 252.083 150.768C247.731 150.768 243.763 149.648 240.179 147.408C236.595 145.104 233.747 141.872 231.635 137.712C229.587 133.488 228.563 128.624 228.563 123.12ZM268.691 123.216C268.691 119.12 267.539 115.888 265.235 113.52C262.995 111.152 260.243 109.968 256.979 109.968C253.715 109.968 250.931 111.152 248.627 113.52C246.387 115.824 245.267 119.024 245.267 123.12C245.267 127.216 246.387 130.48 248.627 132.912C250.931 135.28 253.715 136.464 256.979 136.464C260.243 136.464 262.995 135.28 265.235 132.912C267.539 130.544 268.691 127.312 268.691 123.216ZM326.839 136.08V150H318.487C312.535 150 307.895 148.56 304.567 145.68C301.239 142.736 299.575 137.968 299.575 131.376V110.064H293.047V96.432H299.575V83.376H315.991V96.432H326.743V110.064H315.991V131.568C315.991 133.168 316.375 134.32 317.143 135.024C317.911 135.728 319.191 136.08 320.983 136.08H326.839ZM332.719 123.12C332.719 117.616 333.743 112.784 335.791 108.624C337.903 104.464 340.751 101.264 344.335 99.024C347.919 96.784 351.919 95.664 356.335 95.664C360.111 95.664 363.407 96.432 366.223 97.968C369.103 99.504 371.311 101.52 372.847 104.016V96.432H389.263V150H372.847V142.416C371.247 144.912 369.007 146.928 366.127 148.464C363.311 150 360.015 150.768 356.239 150.768C351.887 150.768 347.919 149.648 344.335 147.408C340.751 145.104 337.903 141.872 335.791 137.712C333.743 133.488 332.719 128.624 332.719 123.12ZM372.847 123.216C372.847 119.12 371.695 115.888 369.391 113.52C367.151 111.152 364.399 109.968 361.135 109.968C357.871 109.968 355.087 111.152 352.783 113.52C350.543 115.824 349.423 119.024 349.423 123.12C349.423 127.216 350.543 130.48 352.783 132.912C355.087 135.28 357.871 136.464 361.135 136.464C364.399 136.464 367.151 135.28 369.391 132.912C371.695 130.544 372.847 127.312 372.847 123.216Z" fill="#5F7161"/>
</svg>
