<svg width="136" height="22" viewBox="0 0 136 22" fill="none" xmlns="http://www.w3.org/2000/svg">
<path d="M123.827 20.763L128.31 13L131.841 19.117C130.141 20.3443 128.097 21.0033 126 21C125.254 21 124.527 20.918 123.827 20.763ZM121.891 20.12C120.606 19.5391 119.458 18.6938 118.522 17.6393C117.587 16.5847 116.884 15.3447 116.459 14H125.423L121.891 20.119V20.12ZM116.051 12C115.908 10.5973 116.065 9.18011 116.51 7.84224C116.955 6.50436 117.679 5.27623 118.634 4.23901L123.112 12H116.051ZM120.16 2.88301C121.86 1.65589 123.904 0.996901 126 1.00001C126.746 1.00001 127.473 1.08201 128.173 1.23701L123.69 9L120.16 2.88301V2.88301ZM130.109 1.88001C131.394 2.46089 132.542 3.30619 133.478 4.36073C134.413 5.41527 135.116 6.65534 135.541 8H126.577L130.109 1.88101V1.88001ZM135.949 10C136.092 11.4027 135.935 12.8199 135.49 14.1578C135.045 15.4956 134.321 16.7238 133.366 17.761L128.888 10H135.951H135.949Z" fill="#5F7161"/>
<path d="M11.7653 21.36C16.5953 21.36 19.2053 18.54 20.4953 15.99L16.0553 13.89C15.3953 15.48 13.6853 16.8 11.7653 16.8C8.49527 16.8 6.18527 14.28 6.18527 11.01C6.18527 7.71 8.49527 5.22 11.7653 5.22C13.6853 5.22 15.3953 6.54 16.0553 8.13L20.4953 6C19.2053 3.39 16.5953 0.659999 11.7653 0.659999C5.61527 0.659999 0.935273 4.83 0.935273 11.01C0.935273 17.16 5.61527 21.36 11.7653 21.36ZM31.0668 21.36C36.4368 21.36 39.4068 18.69 39.4068 14.67C39.4068 7.23 28.0968 9.09 28.0968 6.63C28.0968 5.76 28.7568 5.25 30.2568 5.25C32.2368 5.25 34.4268 5.94 36.1068 7.35L38.9268 3.48C36.7968 1.65 34.0068 0.689999 30.7968 0.689999C25.6668 0.689999 22.8468 3.69 22.8468 7.05C22.8468 14.76 34.1568 12.57 34.1568 15.21C34.1568 16.2 33.0768 16.8 31.3368 16.8C28.5768 16.8 26.3568 15.6 24.9168 14.16L22.1868 18.18C24.1968 20.07 27.0168 21.36 31.0668 21.36ZM51.8521 21V5.49H57.4321V0.989998H41.0821V5.49H46.6921V21H51.8521ZM70.2681 21.36C76.6881 21.36 79.6881 17.85 79.6881 12.87V0.989998H74.4681V12.72C74.4681 15.09 73.0281 16.8 70.2681 16.8C67.4781 16.8 66.0381 15.09 66.0381 12.72V0.989998H60.7881V12.9C60.7881 17.82 63.8481 21.36 70.2681 21.36ZM92.6181 21C98.8881 21 103.418 17.19 103.418 10.98C103.418 4.77 98.8881 0.989998 92.5881 0.989998H84.1881V21H92.6181ZM92.5881 16.5H89.3481V5.49H92.6181C96.2781 5.49 98.1381 7.89 98.1381 10.98C98.1381 13.95 96.0981 16.5 92.5881 16.5ZM112.045 21V0.989998H106.885V21H112.045Z" fill="#5F7161"/>
</svg>
