<svg width="100" height="100" viewBox="0 0 100 100" fill="none" xmlns="http://www.w3.org/2000/svg">
<rect width="100" height="100" rx="5" fill="#EFEAD8"/>
<path d="M62.9974 55.0312C63.5165 55.0312 65.4631 55.9097 68.8372 57.6667C72.2114 59.4236 73.9983 60.4818 74.1979 60.8411C74.2778 61.0408 74.3177 61.3403 74.3177 61.7396C74.3177 63.0573 73.9783 64.5747 73.2995 66.2917C72.6606 67.849 71.2431 69.1567 69.0469 70.2148C66.8507 71.273 64.8142 71.8021 62.9375 71.8021C60.6615 71.8021 56.8681 70.5642 51.5573 68.0885C47.6441 66.2917 44.25 63.9358 41.375 61.0208C38.5 58.1059 35.5451 54.4123 32.5104 49.9401C29.6354 45.6675 28.2179 41.7943 28.2578 38.3203V37.8411C28.3776 34.2075 29.855 31.053 32.6901 28.3776C33.6484 27.4991 34.6866 27.0599 35.8047 27.0599C36.0443 27.0599 36.4036 27.0898 36.8828 27.1497C37.362 27.2096 37.7413 27.2396 38.0208 27.2396C38.7795 27.2396 39.3086 27.3694 39.6081 27.6289C39.9076 27.8885 40.217 28.4375 40.5365 29.276C40.8559 30.0747 41.5148 31.8316 42.513 34.5469C43.5113 37.2622 44.0104 38.7595 44.0104 39.0391C44.0104 39.8776 43.3216 41.0256 41.944 42.4831C40.5664 43.9405 39.8776 44.8689 39.8776 45.2682C39.8776 45.5477 39.9774 45.8472 40.1771 46.1667C41.5347 49.0816 43.5712 51.8168 46.2865 54.3724C48.5226 56.4887 51.5373 58.5052 55.3307 60.4219C55.8099 60.7014 56.2491 60.8411 56.6484 60.8411C57.2474 60.8411 58.3255 59.8728 59.8828 57.9362C61.4401 55.9996 62.4783 55.0312 62.9974 55.0312ZM50.8385 86.776C55.9097 86.776 60.7713 85.7778 65.4232 83.7812C70.0751 81.7847 74.0781 79.1094 77.4323 75.7552C80.7865 72.401 83.4618 68.398 85.4583 63.7461C87.4549 59.0942 88.4531 54.2326 88.4531 49.1615C88.4531 44.0903 87.4549 39.2287 85.4583 34.5768C83.4618 29.9249 80.7865 25.9219 77.4323 22.5677C74.0781 19.2135 70.0751 16.5382 65.4232 14.5417C60.7713 12.5451 55.9097 11.5469 50.8385 11.5469C45.7674 11.5469 40.9058 12.5451 36.2539 14.5417C31.602 16.5382 27.599 19.2135 24.2448 22.5677C20.8906 25.9219 18.2153 29.9249 16.2187 34.5768C14.2222 39.2287 13.224 44.0903 13.224 49.1615C13.224 57.2674 15.6198 64.6146 20.4115 71.2031L15.6797 85.1589L30.1745 80.5469C36.4835 84.6997 43.3715 86.776 50.8385 86.776ZM50.8385 4C56.9479 4 62.7878 5.19792 68.3581 7.59375C73.9284 9.98958 78.73 13.204 82.763 17.237C86.796 21.27 90.0104 26.0716 92.4062 31.6419C94.8021 37.2122 96 43.0521 96 49.1615C96 55.2708 94.8021 61.1107 92.4062 66.681C90.0104 72.2513 86.796 77.0529 82.763 81.0859C78.73 85.1189 73.9284 88.3333 68.3581 90.7292C62.7878 93.125 56.9479 94.3229 50.8385 94.3229C43.0521 94.3229 35.7648 92.4462 28.9766 88.6927L4 96.7187L12.1458 72.4609C7.83333 65.3533 5.67708 57.5868 5.67708 49.1615C5.67708 43.0521 6.875 37.2122 9.27083 31.6419C11.6667 26.0716 14.8811 21.27 18.9141 17.237C22.947 13.204 27.7487 9.98958 33.319 7.59375C38.8893 5.19792 44.7292 4 50.8385 4Z" fill="#5F7161"/>
</svg>
