<svg width="100" height="100" viewBox="0 0 100 100" fill="none" xmlns="http://www.w3.org/2000/svg">
<rect width="100" height="100" rx="5" fill="#EFEAD8"/>
<path fill-rule="evenodd" clip-rule="evenodd" d="M39.2875 37.3709H54.7625V45.0792C56.9917 40.6459 62.7083 36.6625 71.2958 36.6625C87.7583 36.6625 91.6667 45.4875 91.6667 61.6792V91.6667H75V65.3667C75 56.1459 72.7708 50.9459 67.0958 50.9459C59.225 50.9459 55.9542 56.55 55.9542 65.3625V91.6667H39.2875V37.3709V37.3709ZM10.7083 90.9584H27.375V36.6625H10.7083V90.9584V90.9584ZM29.7625 18.9584C29.7631 20.3554 29.4861 21.7385 28.9475 23.0275C28.4088 24.3165 27.6194 25.4855 26.625 26.4667C24.61 28.4693 21.8826 29.5903 19.0417 29.5834C16.2058 29.5815 13.4846 28.4634 11.4667 26.4709C10.4759 25.4863 9.68912 24.316 9.15144 23.0268C8.61377 21.7377 8.33576 20.3551 8.33334 18.9584C8.33334 16.1375 9.45834 13.4375 11.4708 11.4459C13.487 9.4507 16.2093 8.33213 19.0458 8.33338C21.8875 8.33338 24.6125 9.45421 26.625 11.4459C28.6333 13.4375 29.7625 16.1375 29.7625 18.9584Z" fill="#5F7161"/>
</svg>
