<svg width="646" height="182" viewBox="0 0 646 182" fill="none" xmlns="http://www.w3.org/2000/svg">
<path d="M21.2 106.1L20.7107 106.972L20.7153 106.975L21.2 106.1ZM8.1 93.3L7.23434 93.8006L7.23792 93.8068L7.24158 93.813L8.1 93.3ZM8.1 56.2L7.24155 55.687L7.23699 55.6948L8.1 56.2ZM21.2 43.4L20.7152 42.5253L20.7108 42.5279L21.2 43.4ZM57.5 43.4L57.0107 44.2722L57.0153 44.2747L57.5 43.4ZM70.5 56.2L69.6324 56.6973L69.637 56.7052L70.5 56.2ZM70.5 93.3L71.363 93.8052L71.3657 93.8006L70.5 93.3ZM57.5 106.1L57.9893 106.972L57.9893 106.972L57.5 106.1ZM52.8 89.5L52.0606 88.8266L52.0541 88.834L52.8 89.5ZM52.8 59.9L52.0541 60.566L52.0603 60.573L52.0667 60.5799L52.8 59.9ZM25.8 59.8L25.0667 59.12L25.0601 59.1273L25.8 59.8ZM25.8 89.6L25.0541 90.266L25.0603 90.273L25.0667 90.2799L25.8 89.6ZM39.4 109.7C32.962 109.7 27.0632 108.206 21.6847 105.225L20.7153 106.975C26.4035 110.127 32.638 111.7 39.4 111.7V109.7ZM21.6893 105.228C16.3774 102.248 12.137 98.1063 8.95842 92.787L7.24158 93.813C10.5963 99.427 15.0892 103.819 20.7108 106.972L21.6893 105.228ZM8.96566 92.7994C5.86018 87.4295 4.3 81.4044 4.3 74.7H2.3C2.3 81.7289 3.93982 88.1038 7.23434 93.8006L8.96566 92.7994ZM4.3 74.7C4.3 67.9955 5.86019 62.0058 8.96301 56.7052L7.23699 55.6948C3.93981 61.3275 2.3 67.6712 2.3 74.7H4.3ZM8.95842 56.713C12.137 51.3937 16.3774 47.2519 21.6893 44.2721L20.7108 42.5279C15.0892 45.6814 10.5963 50.073 7.24158 55.687L8.95842 56.713ZM21.6847 44.2747C27.0632 41.2938 32.962 39.8 39.4 39.8V37.8C32.638 37.8 26.4035 39.3729 20.7153 42.5253L21.6847 44.2747ZM39.4 39.8C45.8381 39.8 51.7015 41.2938 57.0108 44.2721L57.9893 42.5279C52.3652 39.3729 46.1619 37.8 39.4 37.8V39.8ZM57.0153 44.2747C62.3896 47.2532 66.5902 51.3897 69.6324 56.6973L71.3676 55.7027C68.1431 50.077 63.6771 45.6801 57.9848 42.5253L57.0153 44.2747ZM69.637 56.7052C72.7398 62.0058 74.3 67.9955 74.3 74.7H76.3C76.3 67.6712 74.6602 61.3275 71.363 55.6948L69.637 56.7052ZM74.3 74.7C74.3 81.4044 72.7398 87.4295 69.6343 92.7994L71.3657 93.8006C74.6602 88.1038 76.3 81.7289 76.3 74.7H74.3ZM69.637 92.7948C66.5258 98.1098 62.3207 102.249 57.0108 105.228L57.9893 106.972C63.6126 103.818 68.0742 99.4235 71.363 93.8052L69.637 92.7948ZM57.0108 105.228C51.7015 108.206 45.8381 109.7 39.4 109.7V111.7C46.1619 111.7 52.3652 110.127 57.9893 106.972L57.0108 105.228ZM39.4 96.1C45.2471 96.1 49.9991 94.1384 53.5459 90.166L52.0541 88.834C48.9342 92.3282 44.7529 94.1 39.4 94.1V96.1ZM53.5393 90.1733C57.1414 86.2181 58.9 81.0262 58.9 74.7H56.9C56.9 80.6405 55.2586 85.3152 52.0607 88.8267L53.5393 90.1733ZM58.9 74.7C58.9 68.3112 57.1434 63.1134 53.5333 59.2201L52.0667 60.5799C55.2566 64.02 56.9 68.6888 56.9 74.7H58.9ZM53.5459 59.234C49.9991 55.2616 45.2471 53.3 39.4 53.3V55.3C44.7529 55.3 48.9342 57.0718 52.0541 60.566L53.5459 59.234ZM39.4 53.3C33.4959 53.3 28.6821 55.2212 25.0667 59.1201L26.5333 60.4799C29.7179 57.0455 33.9708 55.3 39.4 55.3V53.3ZM25.0601 59.1273C21.5185 63.023 19.8 68.2528 19.8 74.7H21.8C21.8 68.6138 23.4148 63.9103 26.5399 60.4727L25.0601 59.1273ZM19.8 74.7C19.8 81.0846 21.5205 86.3085 25.0541 90.266L26.5459 88.934C23.4128 85.4249 21.8 80.7154 21.8 74.7H19.8ZM25.0667 90.2799C28.6821 94.1788 33.4959 96.1 39.4 96.1V94.1C33.9708 94.1 29.7179 92.3545 26.5333 88.9201L25.0667 90.2799ZM139.913 54.2H140.913V53.2H139.913V54.2ZM139.913 110V111H140.913V110H139.913ZM122.813 110H121.813V111H122.813V110ZM122.813 102.4H123.813V99.2376L121.995 101.825L122.813 102.4ZM115.713 108.4L116.161 109.294L116.168 109.29L115.713 108.4ZM94.6133 107.8L94.104 108.661L94.1105 108.664L94.1171 108.668L94.6133 107.8ZM87.0133 99.5L86.1189 99.9472L87.0133 99.5ZM84.3133 54.2V53.2H83.3133V54.2H84.3133ZM101.313 54.2H102.313V53.2H101.313V54.2ZM104.213 93.2L103.483 93.8832L103.483 93.8832L104.213 93.2ZM119.913 93.2L119.183 92.5168L119.913 93.2ZM122.813 54.2V53.2H121.813V54.2H122.813ZM138.913 54.2V110H140.913V54.2H138.913ZM139.913 109H122.813V111H139.913V109ZM123.813 110V102.4H121.813V110H123.813ZM121.995 101.825C120.366 104.144 118.131 106.041 115.258 107.51L116.168 109.29C119.296 107.692 121.794 105.59 123.631 102.975L121.995 101.825ZM115.266 107.506C112.485 108.896 109.373 109.6 105.913 109.6V111.6C109.653 111.6 113.075 110.837 116.16 109.294L115.266 107.506ZM105.913 109.6C101.797 109.6 98.2056 108.701 95.1094 106.932L94.1171 108.668C97.5543 110.632 101.496 111.6 105.913 111.6V109.6ZM95.1226 106.939C92.0315 105.11 89.6272 102.492 87.9077 99.0528L86.1189 99.9472C87.9994 103.708 90.6617 106.623 94.104 108.661L95.1226 106.939ZM87.9077 99.0528C86.1902 95.6177 85.3133 91.5435 85.3133 86.8H83.3133C83.3133 91.7899 84.2364 96.1823 86.1189 99.9472L87.9077 99.0528ZM85.3133 86.8V54.2H83.3133V86.8H85.3133ZM84.3133 55.2H101.313V53.2H84.3133V55.2ZM100.313 54.2V84.5H102.313V54.2H100.313ZM100.313 84.5C100.313 88.4039 101.327 91.5783 103.483 93.8832L104.944 92.5168C103.233 90.6883 102.313 88.0628 102.313 84.5H100.313ZM103.483 93.8832C105.635 96.1837 108.517 97.3 112.013 97.3V95.3C108.977 95.3 106.658 94.3496 104.944 92.5168L103.483 93.8832ZM112.013 97.3C115.57 97.3 118.487 96.188 120.644 93.8832L119.183 92.5168C117.472 94.3453 115.123 95.3 112.013 95.3V97.3ZM120.644 93.8832C122.8 91.5783 123.813 88.4039 123.813 84.5H121.813C121.813 88.0628 120.894 90.6883 119.183 92.5168L120.644 93.8832ZM123.813 84.5V54.2H121.813V84.5H123.813ZM122.813 55.2H139.913V53.2H122.813V55.2ZM169.296 63.5H168.296V66.8639L170.134 64.0463L169.296 63.5ZM176.796 56.3L177.296 57.1659L177.304 57.1617L177.311 57.1575L176.796 56.3ZM186.796 53.6H187.796V52.6H186.796V53.6ZM186.796 71.7V72.7H187.796V71.7H186.796ZM172.496 74.5L173.141 75.2643L173.148 75.2585L173.155 75.2526L172.496 74.5ZM169.296 110V111H170.296V110H169.296ZM152.196 110H151.196V111H152.196V110ZM152.196 54.2V53.2H151.196V54.2H152.196ZM169.296 54.2H170.296V53.2H169.296V54.2ZM170.134 64.0463C172.053 61.1035 174.44 58.8162 177.296 57.1659L176.296 55.4341C173.152 57.2505 170.539 59.7632 168.458 62.9537L170.134 64.0463ZM177.311 57.1575C180.148 55.4553 183.302 54.6 186.796 54.6V52.6C182.957 52.6 179.445 53.5447 176.282 55.4425L177.311 57.1575ZM185.796 53.6V71.7H187.796V53.6H185.796ZM186.796 70.7H182.096V72.7H186.796V70.7ZM182.096 70.7C177.706 70.7 174.226 71.6575 171.838 73.7474L173.155 75.2526C175.033 73.6091 177.953 72.7 182.096 72.7V70.7ZM171.851 73.7357C169.381 75.8198 168.296 79.3917 168.296 84.1H170.296C170.296 79.6083 171.344 76.7802 173.141 75.2643L171.851 73.7357ZM168.296 84.1V110H170.296V84.1H168.296ZM169.296 109H152.196V111H169.296V109ZM153.196 110V54.2H151.196V110H153.196ZM152.196 55.2H169.296V53.2H152.196V55.2ZM168.296 54.2V63.5H170.296V54.2H168.296ZM227.761 108.2L227.382 109.125L227.382 109.125L227.761 108.2ZM217.961 100.8L217.155 101.392L217.163 101.403L217.961 100.8ZM214.161 89V88H213.132L213.161 89.029L214.161 89ZM232.361 89L233.356 88.898L233.264 88H232.361V89ZM235.061 95L234.387 95.7385L234.396 95.7467L234.405 95.7546L235.061 95ZM247.061 95.3L247.672 96.0913L247.683 96.0828L247.694 96.074L247.061 95.3ZM247.461 86.1L246.754 86.8071L246.764 86.8172L246.774 86.827L247.461 86.1ZM243.161 83.3L242.758 84.2153L242.765 84.2182L242.771 84.221L243.161 83.3ZM235.961 80.8L235.666 81.7555L235.675 81.7584L235.961 80.8ZM224.861 76.6L224.422 77.4986L224.861 76.6ZM217.461 70.4L218.259 69.7969L218.259 69.7969L217.461 70.4ZM221.461 44.4L222.073 45.1906L222.08 45.1852L221.461 44.4ZM258.661 44.4L258.042 45.1852L258.049 45.1905L258.661 44.4ZM266.261 59.8V60.8H267.313L267.26 59.7496L266.261 59.8ZM247.761 59.8L246.763 59.8587L246.818 60.8H247.761V59.8ZM245.261 54.5L244.605 55.2546L244.614 55.2629L244.624 55.271L245.261 54.5ZM234.361 54.2L235.005 54.9649L235.017 54.9552L235.028 54.9452L234.361 54.2ZM235.661 64.2L236.171 63.3401L236.171 63.3401L235.661 64.2ZM245.661 68.3L245.981 67.3526L245.969 67.3486L245.661 68.3ZM256.661 72.7L256.214 73.5945L256.222 73.5986L256.661 72.7ZM264.061 78.8L263.271 79.4126L263.271 79.4126L264.061 78.8ZM264.061 100L263.216 99.4654L263.212 99.4716L263.208 99.4778L264.061 100ZM255.261 107.8L254.814 106.906L254.814 106.906L255.261 107.8ZM241.561 109.7C236.536 109.7 232.068 108.884 228.14 107.275L227.382 109.125C231.587 110.849 236.319 111.7 241.561 111.7V109.7ZM228.14 107.275C224.227 105.671 221.11 103.31 218.759 100.197L217.163 101.403C219.746 104.823 223.162 107.396 227.382 109.125L228.14 107.275ZM218.767 100.208C216.503 97.1265 215.289 93.3965 215.161 88.971L213.161 89.029C213.3 93.8035 214.619 97.9402 217.155 101.392L218.767 100.208ZM214.161 90H232.361V88H214.161V90ZM231.366 89.102C231.651 91.8808 232.629 94.1333 234.387 95.7385L235.735 94.2615C234.427 93.0667 233.604 91.3192 233.356 88.898L231.366 89.102ZM234.405 95.7546C236.157 97.2783 238.407 98 241.061 98V96C238.782 96 237.032 95.3884 235.717 94.2454L234.405 95.7546ZM241.061 98C243.735 98 245.976 97.4019 247.672 96.0913L246.449 94.5087C245.212 95.4648 243.453 96 241.061 96V98ZM247.694 96.074C249.416 94.6653 250.261 92.7357 250.261 90.4H248.261C248.261 92.1977 247.639 93.5347 246.428 94.526L247.694 96.074ZM250.261 90.4C250.261 88.407 249.559 86.7056 248.148 85.373L246.774 86.827C247.763 87.7611 248.261 88.9263 248.261 90.4H250.261ZM248.168 85.3929C246.929 84.1541 245.382 83.1539 243.551 82.379L242.771 84.221C244.406 84.9127 245.726 85.7792 246.754 86.8071L248.168 85.3929ZM243.564 82.3847C241.84 81.6263 239.394 80.7791 236.246 79.8416L235.675 81.7584C238.795 82.6876 241.148 83.507 242.758 84.2153L243.564 82.3847ZM236.256 79.8445C231.751 78.4532 228.104 77.0707 225.3 75.7014L224.422 77.4986C227.352 78.9293 231.105 80.3468 235.666 81.7555L236.256 79.8445ZM225.3 75.7014C222.585 74.3754 220.238 72.4144 218.259 69.7969L216.663 71.0031C218.818 73.8522 221.404 76.0246 224.422 77.4986L225.3 75.7014ZM218.259 69.7969C216.356 67.2811 215.361 63.9446 215.361 59.7H213.361C213.361 64.2554 214.432 68.0523 216.663 71.0031L218.259 69.7969ZM215.361 59.7C215.361 53.4435 217.609 48.6488 222.073 45.1905L220.849 43.6094C215.846 47.4845 213.361 52.8898 213.361 59.7H215.361ZM222.08 45.1852C226.595 41.6239 232.526 39.8 239.961 39.8V37.8C232.196 37.8 225.793 39.7094 220.842 43.6148L222.08 45.1852ZM239.961 39.8C247.534 39.8 253.529 41.6262 258.042 45.1852L259.28 43.6148C254.326 39.7071 247.855 37.8 239.961 37.8V39.8ZM258.049 45.1905C262.526 48.6588 264.942 53.5077 265.262 59.8504L267.26 59.7496C266.913 52.8923 264.263 47.4745 259.273 43.6094L258.049 45.1905ZM266.261 58.8H247.761V60.8H266.261V58.8ZM248.759 59.7413C248.612 57.2405 247.677 55.1984 245.898 53.729L244.624 55.271C245.912 56.3349 246.643 57.8262 246.763 59.8587L248.759 59.7413ZM245.917 53.7454C244.17 52.226 241.956 51.5 239.361 51.5V53.5C241.566 53.5 243.285 54.1073 244.605 55.2546L245.917 53.7454ZM239.361 51.5C237.104 51.5 235.182 52.1237 233.694 53.4548L235.028 54.9452C236.073 54.0096 237.485 53.5 239.361 53.5V51.5ZM233.717 53.4351C232.17 54.7376 231.461 56.6179 231.461 58.9H233.461C233.461 57.0488 234.019 55.7957 235.005 54.9649L233.717 53.4351ZM231.461 58.9C231.461 61.5581 232.748 63.6336 235.15 65.0599L236.171 63.3401C234.307 62.2331 233.461 60.7752 233.461 58.9H231.461ZM235.15 65.0599C237.382 66.3848 240.801 67.7787 245.353 69.2514L245.969 67.3486C241.454 65.8879 238.207 64.5485 236.171 63.3401L235.15 65.0599ZM245.341 69.2473C249.851 70.7727 253.47 72.2226 256.214 73.5944L257.108 71.8056C254.252 70.3774 250.538 68.8939 245.981 67.3527L245.341 69.2473ZM256.222 73.5986C258.943 74.9275 261.292 76.8597 263.271 79.4126L264.851 78.1874C262.696 75.4069 260.112 73.2725 257.1 71.8014L256.222 73.5986ZM263.271 79.4126C265.171 81.8647 266.161 85.0664 266.161 89.1H268.161C268.161 84.7336 267.084 81.0687 264.851 78.1874L263.271 79.4126ZM266.161 89.1C266.161 92.9177 265.178 96.3644 263.216 99.4654L264.906 100.535C267.078 97.1023 268.161 93.2823 268.161 89.1H266.161ZM263.208 99.4778C261.318 102.565 258.535 105.045 254.814 106.906L255.708 108.694C259.72 106.688 262.804 103.968 264.914 100.522L263.208 99.4778ZM254.814 106.906C251.113 108.756 246.706 109.7 241.561 109.7V111.7C246.949 111.7 251.676 110.711 255.708 108.694L254.814 106.906ZM329.984 86.2V87.2H330.876L330.978 86.3146L329.984 86.2ZM291.284 86.2V85.2H290.204L290.287 86.2767L291.284 86.2ZM294.584 94.2L293.89 94.9194L293.902 94.9316L293.915 94.9433L294.584 94.2ZM310.784 91.5V90.5H310.145L309.877 91.0799L310.784 91.5ZM328.984 91.5L329.953 91.7467L330.271 90.5H328.984V91.5ZM323.884 101.4L323.119 100.756L323.11 100.767L323.884 101.4ZM314.784 108.3L315.198 109.21L314.784 108.3ZM287.884 107.3L287.405 108.177L287.405 108.177L287.884 107.3ZM277.884 97.3L278.759 96.8155L278.759 96.8155L277.884 97.3ZM277.784 66.9L276.91 66.4155L276.904 66.4259L277.784 66.9ZM287.784 56.9L288.264 57.7774L288.264 57.7774L287.784 56.9ZM316.884 56.8L316.409 57.68L316.409 57.68L316.884 56.8ZM326.684 66.5L325.81 66.9857L325.816 66.9961L326.684 66.5ZM312.784 76.7V77.7H313.784V76.7H312.784ZM309.784 69.7L310.439 68.9443L310.439 68.9443L309.784 69.7ZM294.984 69.6L294.344 68.8318L294.338 68.8371L294.331 68.8426L294.984 69.6ZM291.384 76.7L290.396 76.5496L290.221 77.7H291.384V76.7ZM329.284 81.2C329.284 82.7584 329.187 84.3867 328.991 86.0854L330.978 86.3146C331.182 84.5466 331.284 82.8416 331.284 81.2H329.284ZM329.984 85.2H291.284V87.2H329.984V85.2ZM290.287 86.2767C290.567 89.9139 291.734 92.8377 293.89 94.9194L295.279 93.4806C293.568 91.829 292.535 89.4195 292.281 86.1233L290.287 86.2767ZM293.915 94.9433C296.112 96.92 298.788 97.9 301.884 97.9V95.9C299.247 95.9 297.057 95.08 295.253 93.4567L293.915 94.9433ZM301.884 97.9C304.159 97.9 306.156 97.4194 307.828 96.4049C309.505 95.3876 310.787 93.8738 311.692 91.9201L309.877 91.0799C309.115 92.7262 308.081 93.9124 306.791 94.6951C305.496 95.4806 303.877 95.9 301.884 95.9V97.9ZM310.784 92.5H328.984V90.5H310.784V92.5ZM328.015 91.2533C327.12 94.7721 325.49 97.9368 323.119 100.756L324.65 102.044C327.212 98.9965 328.982 95.5613 329.953 91.7467L328.015 91.2533ZM323.11 100.767C320.814 103.574 317.906 105.782 314.371 107.39L315.198 109.21C318.996 107.484 322.155 105.093 324.658 102.033L323.11 100.767ZM314.371 107.39C310.849 108.99 306.893 109.8 302.484 109.8V111.8C307.142 111.8 311.386 110.943 315.198 109.21L314.371 107.39ZM302.484 109.8C297.164 109.8 292.466 108.666 288.364 106.423L287.405 108.177C291.836 110.601 296.871 111.8 302.484 111.8V109.8ZM288.364 106.423C284.267 104.182 281.069 100.986 278.759 96.8155L277.01 97.7845C279.5 102.28 282.968 105.751 287.405 108.177L288.364 106.423ZM278.759 96.8155C276.454 92.654 275.284 87.7596 275.284 82.1H273.284C273.284 88.0404 274.514 93.2794 277.01 97.7845L278.759 96.8155ZM275.284 82.1C275.284 76.4359 276.423 71.5377 278.665 67.3741L276.904 66.4259C274.479 70.9289 273.284 76.1641 273.284 82.1H275.284ZM278.659 67.3845C280.969 63.2136 284.167 60.018 288.264 57.7774L287.305 56.0226C282.868 58.4486 279.4 61.9197 276.91 66.4155L278.659 67.3845ZM288.264 57.7774C292.364 55.535 297.095 54.4 302.484 54.4V52.4C296.807 52.4 291.738 53.5983 287.305 56.0226L288.264 57.7774ZM302.484 54.4C307.741 54.4 312.374 55.502 316.409 57.68L317.359 55.92C312.995 53.5647 308.028 52.4 302.484 52.4V54.4ZM316.409 57.68C320.44 59.8554 323.569 62.9513 325.81 66.9856L327.559 66.0144C325.133 61.6487 321.728 58.2779 317.359 55.92L316.409 57.68ZM325.816 66.9961C328.117 71.0227 329.284 75.7463 329.284 81.2H331.284C331.284 75.4537 330.052 70.3773 327.553 66.0039L325.816 66.9961ZM313.784 76.7C313.784 73.5119 312.684 70.8895 310.439 68.9443L309.129 70.4557C310.885 71.9771 311.784 74.0214 311.784 76.7H313.784ZM310.439 68.9443C308.233 67.0323 305.491 66.1 302.284 66.1V68.1C305.078 68.1 307.336 68.901 309.129 70.4557L310.439 68.9443ZM302.284 66.1C299.209 66.1 296.542 66.9999 294.344 68.8318L295.625 70.3682C297.426 68.8667 299.626 68.1 302.284 68.1V66.1ZM294.331 68.8426C292.181 70.6968 290.89 73.2999 290.396 76.5496L292.373 76.8504C292.812 73.9668 293.921 71.8366 295.637 70.3574L294.331 68.8426ZM291.384 77.7H312.784V75.7H291.384V77.7ZM356.405 63.5H355.405V66.8639L357.243 64.0463L356.405 63.5ZM363.905 56.3L364.406 57.1659L364.413 57.1617L364.42 57.1575L363.905 56.3ZM373.905 53.6H374.905V52.6H373.905V53.6ZM373.905 71.7V72.7H374.905V71.7H373.905ZM359.605 74.5L360.25 75.2643L360.257 75.2585L360.264 75.2526L359.605 74.5ZM356.405 110V111H357.405V110H356.405ZM339.305 110H338.305V111H339.305V110ZM339.305 54.2V53.2H338.305V54.2H339.305ZM356.405 54.2H357.405V53.2H356.405V54.2ZM357.243 64.0463C359.162 61.1035 361.549 58.8162 364.406 57.1659L363.405 55.4341C360.262 57.2505 357.649 59.7632 355.568 62.9537L357.243 64.0463ZM364.42 57.1575C367.257 55.4553 370.411 54.6 373.905 54.6V52.6C370.067 52.6 366.554 53.5447 363.391 55.4425L364.42 57.1575ZM372.905 53.6V71.7H374.905V53.6H372.905ZM373.905 70.7H369.205V72.7H373.905V70.7ZM369.205 70.7C364.815 70.7 361.335 71.6575 358.947 73.7474L360.264 75.2526C362.142 73.6091 365.063 72.7 369.205 72.7V70.7ZM358.961 73.7357C356.491 75.8198 355.405 79.3917 355.405 84.1H357.405C357.405 79.6083 358.454 76.7802 360.25 75.2643L358.961 73.7357ZM355.405 84.1V110H357.405V84.1H355.405ZM356.405 109H339.305V111H356.405V109ZM340.305 110V54.2H338.305V110H340.305ZM339.305 55.2H356.405V53.2H339.305V55.2ZM355.405 54.2V63.5H357.405V54.2H355.405ZM407.179 94L406.222 94.2909L407.179 97.4379L408.136 94.2909L407.179 94ZM419.279 54.2V53.2H418.538L418.322 53.9091L419.279 54.2ZM437.479 54.2L438.421 54.5344L438.895 53.2H437.479V54.2ZM417.679 110V111H418.385L418.621 110.334L417.679 110ZM396.579 110L395.636 110.334L395.873 111H396.579V110ZM376.779 54.2V53.2H375.363L375.836 54.5344L376.779 54.2ZM395.079 54.2L396.036 53.9091L395.82 53.2H395.079V54.2ZM408.136 94.2909L420.236 54.4909L418.322 53.9091L406.222 93.7091L408.136 94.2909ZM419.279 55.2H437.479V53.2H419.279V55.2ZM436.536 53.8656L416.736 109.666L418.621 110.334L438.421 54.5344L436.536 53.8656ZM417.679 109H396.579V111H417.679V109ZM397.521 109.666L377.721 53.8656L375.836 54.5344L395.636 110.334L397.521 109.666ZM376.779 55.2H395.079V53.2H376.779V55.2ZM394.122 54.4909L406.222 94.2909L408.136 93.7091L396.036 53.9091L394.122 54.4909ZM445.877 45.8L445.182 46.5198L445.195 46.5324L445.209 46.5446L445.877 45.8ZM445.877 32.6L446.557 33.3328L446.558 33.3319L445.877 32.6ZM460.477 32.6L459.782 33.3198L459.795 33.3324L459.809 33.3446L460.477 32.6ZM460.477 45.8L461.157 46.5328L461.158 46.5319L460.477 45.8ZM461.777 54.2H462.777V53.2H461.777V54.2ZM461.777 110V111H462.777V110H461.777ZM444.677 110H443.677V111H444.677V110ZM444.677 54.2V53.2H443.677V54.2H444.677ZM453.277 47.4C450.482 47.4 448.266 46.599 446.544 45.0554L445.209 46.5446C447.354 48.4677 450.071 49.4 453.277 49.4V47.4ZM446.571 45.0802C444.9 43.4692 444.077 41.5293 444.077 39.2H442.077C442.077 42.0707 443.12 44.5308 445.182 46.5198L446.571 45.0802ZM444.077 39.2C444.077 36.7967 444.905 34.8671 446.557 33.3328L445.196 31.8672C443.115 33.7995 442.077 36.2699 442.077 39.2H444.077ZM446.558 33.3319C448.281 31.7278 450.492 30.9 453.277 30.9V28.9C450.061 28.9 447.339 29.8722 445.195 31.8681L446.558 33.3319ZM453.277 30.9C455.988 30.9 458.127 31.7236 459.782 33.3198L461.171 31.8802C459.093 29.8764 456.432 28.9 453.277 28.9V30.9ZM459.809 33.3446C461.524 34.8825 462.377 36.8087 462.377 39.2H464.377C464.377 36.2579 463.295 33.7842 461.144 31.8554L459.809 33.3446ZM462.377 39.2C462.377 41.5174 461.529 43.4538 459.795 45.0681L461.158 46.5319C463.291 44.5462 464.377 42.0826 464.377 39.2H462.377ZM459.796 45.0672C458.142 46.6028 455.998 47.4 453.277 47.4V49.4C456.421 49.4 459.077 48.4639 461.157 46.5328L459.796 45.0672ZM460.777 54.2V110H462.777V54.2H460.777ZM461.777 109H444.677V111H461.777V109ZM445.677 110V54.2H443.677V110H445.677ZM444.677 55.2H461.777V53.2H444.677V55.2ZM474.269 66.9L473.394 66.4155L473.388 66.4259L474.269 66.9ZM484.169 56.9L483.689 56.0226L483.683 56.0258L484.169 56.9ZM516.269 58.9L515.651 59.6863L515.656 59.6905L516.269 58.9ZM525.569 74.4V75.4H526.813L526.545 74.1851L525.569 74.4ZM507.369 74.4L506.428 74.7382L506.666 75.4H507.369V74.4ZM490.969 71.7L491.758 72.314L491.766 72.3034L490.969 71.7ZM490.969 92.6L490.171 93.2035L490.179 93.2139L490.969 92.6ZM507.369 89.8V88.8H506.666L506.428 89.4618L507.369 89.8ZM525.569 89.8L526.544 90.019L526.818 88.8H525.569V89.8ZM516.269 105.2L515.649 104.415L515.649 104.415L516.269 105.2ZM484.169 107.3L483.683 108.174L483.689 108.177L484.169 107.3ZM474.269 97.3L473.388 97.7741L473.394 97.7845L474.269 97.3ZM471.769 82.1C471.769 76.4359 472.907 71.5377 475.149 67.3741L473.388 66.4259C470.964 70.9289 469.769 76.1641 469.769 82.1H471.769ZM475.144 67.3845C477.456 63.2096 480.623 60.0137 484.654 57.7742L483.683 56.0258C479.314 58.453 475.882 61.9238 473.394 66.4155L475.144 67.3845ZM484.649 57.7774C488.751 55.5341 493.449 54.4 498.769 54.4V52.4C493.156 52.4 488.12 53.5993 483.689 56.0226L484.649 57.7774ZM498.769 54.4C505.587 54.4 511.191 56.1819 515.651 59.6863L516.887 58.1137C512.013 54.2848 505.951 52.4 498.769 52.4V54.4ZM515.656 59.6905C520.179 63.1939 523.168 68.1429 524.592 74.6149L526.545 74.1851C525.036 67.3238 521.825 61.9394 516.881 58.1094L515.656 59.6905ZM525.569 73.4H507.369V75.4H525.569V73.4ZM508.31 74.0618C507.491 71.7843 506.261 69.9986 504.578 68.7881C502.892 67.5759 500.835 67 498.469 67V69C500.503 69 502.129 69.4908 503.41 70.4119C504.693 71.3347 505.713 72.7491 506.428 74.7382L508.31 74.0618ZM498.469 67C495.027 67 492.23 68.3763 490.171 71.0966L491.766 72.3034C493.441 70.0903 495.644 69 498.469 69V67ZM490.179 71.0861C488.124 73.7293 487.169 77.4488 487.169 82.1H489.169C489.169 77.6846 490.081 74.4707 491.758 72.3139L490.179 71.0861ZM487.169 82.1C487.169 86.7538 488.125 90.4988 490.171 93.2034L491.766 91.9966C490.08 89.7679 489.169 86.5129 489.169 82.1H487.169ZM490.179 93.2139C492.242 95.8661 495.038 97.2 498.469 97.2V95.2C495.633 95.2 493.429 94.1339 491.758 91.9861L490.179 93.2139ZM498.469 97.2C500.835 97.2 502.892 96.6241 504.578 95.4119C506.261 94.2014 507.491 92.4157 508.31 90.1382L506.428 89.4618C505.713 91.4509 504.693 92.8653 503.41 93.7881C502.129 94.7092 500.503 95.2 498.469 95.2V97.2ZM507.369 90.8H525.569V88.8H507.369V90.8ZM524.593 89.581C523.171 95.9166 520.182 100.84 515.649 104.415L516.888 105.985C521.822 102.094 525.033 96.75 526.544 90.019L524.593 89.581ZM515.649 104.415C511.118 107.989 505.513 109.8 498.769 109.8V111.8C505.891 111.8 511.952 109.878 516.888 105.985L515.649 104.415ZM498.769 109.8C493.449 109.8 488.751 108.666 484.649 106.423L483.689 108.177C488.12 110.601 493.156 111.8 498.769 111.8V109.8ZM484.654 106.426C480.623 104.186 477.456 100.99 475.144 96.8155L473.394 97.7845C475.882 102.276 479.314 105.747 483.683 108.174L484.654 106.426ZM475.149 96.8259C472.907 92.6623 471.769 87.7641 471.769 82.1H469.769C469.769 88.0359 470.964 93.2711 473.388 97.7741L475.149 96.8259ZM587.016 86.2V87.2H587.907L588.009 86.3146L587.016 86.2ZM548.316 86.2V85.2H547.236L547.319 86.2767L548.316 86.2ZM551.616 94.2L550.921 94.9194L550.934 94.9316L550.947 94.9433L551.616 94.2ZM567.816 91.5V90.5H567.177L566.908 91.0799L567.816 91.5ZM586.016 91.5L586.985 91.7467L587.302 90.5H586.016V91.5ZM580.916 101.4L580.15 100.756L580.142 100.767L580.916 101.4ZM571.816 108.3L572.229 109.21L571.816 108.3ZM544.916 107.3L544.436 108.177L544.436 108.177L544.916 107.3ZM534.916 97.3L535.79 96.8155L535.79 96.8155L534.916 97.3ZM534.816 66.9L533.941 66.4155L533.935 66.4259L534.816 66.9ZM544.816 56.9L545.295 57.7774L545.295 57.7774L544.816 56.9ZM573.916 56.8L573.441 57.68L573.441 57.68L573.916 56.8ZM583.716 66.5L582.841 66.9857L582.847 66.9961L583.716 66.5ZM569.816 76.7V77.7H570.816V76.7H569.816ZM566.816 69.7L567.471 68.9443L567.471 68.9443L566.816 69.7ZM552.016 69.6L551.375 68.8318L551.369 68.8371L551.363 68.8426L552.016 69.6ZM548.416 76.7L547.427 76.5496L547.252 77.7H548.416V76.7ZM586.316 81.2C586.316 82.7584 586.218 84.3867 586.022 86.0854L588.009 86.3146C588.213 84.5466 588.316 82.8416 588.316 81.2H586.316ZM587.016 85.2H548.316V87.2H587.016V85.2ZM547.319 86.2767C547.598 89.9139 548.765 92.8377 550.921 94.9194L552.31 93.4806C550.6 91.829 549.566 89.4195 549.313 86.1233L547.319 86.2767ZM550.947 94.9433C553.143 96.92 555.82 97.9 558.916 97.9V95.9C556.278 95.9 554.088 95.08 552.285 93.4567L550.947 94.9433ZM558.916 97.9C561.19 97.9 563.187 97.4194 564.859 96.4049C566.536 95.3876 567.819 93.8738 568.723 91.9201L566.908 91.0799C566.146 92.7262 565.112 93.9124 563.822 94.6951C562.527 95.4806 560.908 95.9 558.916 95.9V97.9ZM567.816 92.5H586.016V90.5H567.816V92.5ZM585.047 91.2533C584.151 94.7721 582.521 97.9368 580.15 100.756L581.681 102.044C584.243 98.9965 586.014 95.5613 586.985 91.7467L585.047 91.2533ZM580.142 100.767C577.845 103.574 574.938 105.782 571.402 107.39L572.229 109.21C576.027 107.484 579.186 105.093 581.69 102.033L580.142 100.767ZM571.402 107.39C567.881 108.99 563.924 109.8 559.516 109.8V111.8C564.174 111.8 568.417 110.943 572.229 109.21L571.402 107.39ZM559.516 109.8C554.195 109.8 549.497 108.666 545.395 106.423L544.436 108.177C548.867 110.601 553.902 111.8 559.516 111.8V109.8ZM545.395 106.423C541.298 104.182 538.1 100.986 535.79 96.8155L534.041 97.7845C536.531 102.28 540 105.751 544.436 108.177L545.395 106.423ZM535.79 96.8155C533.486 92.654 532.316 87.7596 532.316 82.1H530.316C530.316 88.0404 531.546 93.2794 534.041 97.7845L535.79 96.8155ZM532.316 82.1C532.316 76.4359 533.454 71.5377 535.696 67.3741L533.935 66.4259C531.51 70.9289 530.316 76.1641 530.316 82.1H532.316ZM535.69 67.3845C538 63.2136 541.198 60.018 545.295 57.7774L544.336 56.0226C539.9 58.4486 536.431 61.9197 533.941 66.4155L535.69 67.3845ZM545.295 57.7774C549.396 55.535 554.127 54.4 559.516 54.4V52.4C553.838 52.4 548.769 53.5983 544.336 56.0226L545.295 57.7774ZM559.516 54.4C564.772 54.4 569.405 55.502 573.441 57.68L574.391 55.92C570.026 53.5647 565.059 52.4 559.516 52.4V54.4ZM573.441 57.68C577.472 59.8554 580.6 62.9513 582.841 66.9856L584.59 66.0144C582.164 61.6487 578.76 58.2779 574.391 55.92L573.441 57.68ZM582.847 66.9961C585.148 71.0227 586.316 75.7463 586.316 81.2H588.316C588.316 75.4537 587.083 70.3773 584.584 66.0039L582.847 66.9961ZM570.816 76.7C570.816 73.5119 569.715 70.8895 567.471 68.9443L566.161 70.4557C567.916 71.9771 568.816 74.0214 568.816 76.7H570.816ZM567.471 68.9443C565.264 67.0323 562.522 66.1 559.316 66.1V68.1C562.109 68.1 564.367 68.901 566.161 70.4557L567.471 68.9443ZM559.316 66.1C556.24 66.1 553.574 66.9999 551.375 68.8318L552.656 70.3682C554.458 68.8667 556.658 68.1 559.316 68.1V66.1ZM551.363 68.8426C549.212 70.6968 547.922 73.2999 547.427 76.5496L549.404 76.8504C549.843 73.9668 550.953 71.8366 552.669 70.3574L551.363 68.8426ZM548.416 77.7H569.816V75.7H548.416V77.7ZM606.037 108.3L606.438 107.384L606.438 107.384L606.037 108.3ZM597.037 101.5L596.237 102.1L596.243 102.109L597.037 101.5ZM593.337 91.7V90.7H592.26L592.339 91.7739L593.337 91.7ZM610.237 91.7L611.231 91.5971L611.139 90.7H610.237V91.7ZM612.937 96.4L613.537 95.6L613.537 95.6L612.937 96.4ZM623.737 97L624.313 97.817L624.322 97.8107L623.737 97ZM623.037 90.2L622.604 91.1015L622.619 91.1087L622.634 91.1153L623.037 90.2ZM614.937 87.6L615.179 86.6299L615.172 86.6279L615.164 86.6262L614.937 87.6ZM604.937 84.7L604.565 85.6285L604.575 85.6325L604.586 85.6363L604.937 84.7ZM598.037 79.8L597.276 80.4489L597.281 80.4546L597.286 80.4601L598.037 79.8ZM597.737 62L596.908 61.4405L596.905 61.4453L597.737 62ZM605.537 55.7L605.132 54.7854L605.126 54.7884L605.537 55.7ZM634.337 58.6L633.682 59.3557L633.688 59.361L634.337 58.6ZM641.337 72.4V73.4H642.447L642.331 72.2959L641.337 72.4ZM625.537 72.4L624.546 72.5366L624.665 73.4H625.537V72.4ZM622.937 67.8L622.308 68.5772L622.316 68.5844L622.325 68.5913L622.937 67.8ZM612.737 67.3L613.303 68.124L613.32 68.1124L613.337 68.1L612.737 67.3ZM613.637 74L613.204 74.9015L613.211 74.9048L613.218 74.908L613.637 74ZM621.637 76.4L621.887 75.4317L621.87 75.4275L621.854 75.4238L621.637 76.4ZM631.737 79.6L631.357 80.5252L631.367 80.5294L631.378 80.5333L631.737 79.6ZM638.537 84.6L637.767 85.238L637.777 85.25L637.787 85.2616L638.537 84.6ZM641.637 93.8H642.637V93.7914L642.637 93.7828L641.637 93.8ZM638.837 102.6L638.024 102.017L638.022 102.021L638.837 102.6ZM630.937 108.6L630.547 107.679L630.541 107.682L630.937 108.6ZM619.037 109.8C614.285 109.8 610.092 108.987 606.438 107.384L605.635 109.216C609.582 110.947 614.055 111.8 619.037 111.8V109.8ZM606.438 107.384C602.77 105.775 599.913 103.605 597.83 100.891L596.243 102.109C598.56 105.128 601.704 107.492 605.635 109.216L606.438 107.384ZM597.837 100.9C595.749 98.117 594.586 95.0323 594.334 91.6261L592.339 91.7739C592.62 95.5676 593.924 99.0163 596.237 102.1L597.837 100.9ZM593.337 92.7H610.237V90.7H593.337V92.7ZM609.242 91.8029C609.472 94.0224 610.521 95.8383 612.337 97.2L613.537 95.6C612.152 94.5617 611.402 93.2442 611.231 91.5971L609.242 91.8029ZM612.337 97.2C614.138 98.5506 616.324 99.2 618.837 99.2V97.2C616.682 97.2 614.936 96.6494 613.537 95.6L612.337 97.2ZM618.837 99.2C621.073 99.2 622.943 98.7845 624.313 97.817L623.16 96.183C622.264 96.8155 620.867 97.2 618.837 97.2V99.2ZM624.322 97.8107C625.749 96.78 626.537 95.3934 626.537 93.7H624.537C624.537 94.6733 624.124 95.4866 623.151 96.1893L624.322 97.8107ZM626.537 93.7C626.537 92.7168 626.277 91.8162 625.725 91.0438C625.18 90.2796 624.394 89.7045 623.439 89.2847L622.634 91.1153C623.347 91.4288 623.81 91.8037 624.098 92.2062C624.38 92.6005 624.537 93.0832 624.537 93.7H626.537ZM623.469 89.2985C621.706 88.4522 618.924 87.566 615.179 86.6299L614.694 88.5701C618.416 89.5007 621.034 90.3478 622.604 91.1015L623.469 89.2985ZM615.164 86.6262C611.189 85.6988 607.901 84.7435 605.288 83.7637L604.586 85.6363C607.306 86.6565 610.684 87.6346 614.709 88.5738L615.164 86.6262ZM605.308 83.7715C602.79 82.7644 600.62 81.2242 598.788 79.1399L597.286 80.4601C599.321 82.7757 601.75 84.5023 604.565 85.6285L605.308 83.7715ZM598.798 79.1511C597.057 77.1106 596.137 74.3293 596.137 70.7H594.137C594.137 74.6707 595.15 77.956 597.276 80.4489L598.798 79.1511ZM596.137 70.7C596.137 67.6924 596.948 64.9863 598.569 62.5547L596.905 61.4453C595.059 64.2137 594.137 67.3076 594.137 70.7H596.137ZM598.566 62.5595C600.246 60.0698 602.69 58.081 605.948 56.6116L605.126 54.7884C601.584 56.3857 598.827 58.5968 596.908 61.4405L598.566 62.5595ZM605.941 56.6145C609.253 55.1497 613.209 54.4 617.837 54.4V52.4C612.998 52.4 608.754 53.1836 605.132 54.7855L605.941 56.6145ZM617.837 54.4C624.675 54.4 629.915 56.0915 633.682 59.3557L634.992 57.8443C630.758 54.1752 624.999 52.4 617.837 52.4V54.4ZM633.688 59.361C637.543 62.6474 639.767 67.004 640.342 72.5041L642.331 72.2959C641.707 66.3294 639.264 61.486 634.985 57.839L633.688 59.361ZM641.337 71.4H625.537V73.4H641.337V71.4ZM626.527 72.2634C626.227 70.0858 625.234 68.3113 623.548 67.0087L622.325 68.5913C623.573 69.5553 624.313 70.8475 624.546 72.5366L626.527 72.2634ZM623.566 67.0228C621.941 65.7074 619.831 65.1 617.337 65.1V67.1C619.51 67.1 621.132 67.6259 622.308 68.5772L623.566 67.0228ZM617.337 65.1C615.223 65.1 613.444 65.5197 612.137 66.5L613.337 68.1C614.163 67.4803 615.45 67.1 617.337 67.1V65.1ZM612.17 66.476C610.823 67.4024 610.137 68.7492 610.137 70.4H612.137C612.137 69.3841 612.518 68.6642 613.303 68.124L612.17 66.476ZM610.137 70.4C610.137 71.3836 610.396 72.287 610.94 73.0704C611.479 73.8455 612.255 74.4462 613.204 74.9015L614.069 73.0985C613.351 72.7538 612.878 72.3545 612.583 71.9296C612.294 71.513 612.137 71.0164 612.137 70.4H610.137ZM613.218 74.908C615.051 75.7539 617.802 76.5722 621.42 77.3762L621.854 75.4238C618.272 74.6278 615.689 73.846 614.056 73.092L613.218 74.908ZM621.387 77.3683C625.496 78.4287 628.815 79.4822 631.357 80.5252L632.116 78.6748C629.458 77.5844 626.044 76.5046 621.887 75.4317L621.387 77.3683ZM631.378 80.5333C633.804 81.4665 635.933 83.0248 637.767 85.238L639.307 83.962C637.274 81.5085 634.87 79.7335 632.096 78.6667L631.378 80.5333ZM637.787 85.2616C639.59 87.3049 640.573 90.1203 640.637 93.8172L642.637 93.7828C642.567 89.7464 641.484 86.4284 639.287 83.9384L637.787 85.2616ZM640.637 93.8C640.637 96.862 639.766 99.5905 638.024 102.017L639.649 103.183C641.64 100.41 642.637 97.2713 642.637 93.8H640.637ZM638.022 102.021C636.35 104.374 633.879 106.269 630.547 107.679L631.326 109.521C634.928 107.997 637.724 105.893 639.652 103.179L638.022 102.021ZM630.541 107.682C627.29 109.084 623.464 109.8 619.037 109.8V111.8C623.677 111.8 627.783 111.049 631.333 109.518L630.541 107.682Z" fill="#EFEAD8"/>
<path d="M50.824 144.672C44.488 144.672 38.664 143.2 33.352 140.256C28.104 137.312 23.912 133.216 20.776 127.968C17.704 122.656 16.168 116.704 16.168 110.112C16.168 103.52 17.704 97.6 20.776 92.352C23.912 87.104 28.104 83.008 33.352 80.064C38.664 77.12 44.488 75.648 50.824 75.648C57.16 75.648 62.952 77.12 68.2 80.064C73.512 83.008 77.672 87.104 80.68 92.352C83.752 97.6 85.288 103.52 85.288 110.112C85.288 116.704 83.752 122.656 80.68 127.968C77.608 133.216 73.448 137.312 68.2 140.256C62.952 143.2 57.16 144.672 50.824 144.672ZM50.824 129.696C56.2 129.696 60.488 127.904 63.688 124.32C66.952 120.736 68.584 116 68.584 110.112C68.584 104.16 66.952 99.424 63.688 95.904C60.488 92.32 56.2 90.528 50.824 90.528C45.384 90.528 41.032 92.288 37.768 95.808C34.568 99.328 32.968 104.096 32.968 110.112C32.968 116.064 34.568 120.832 37.768 124.416C41.032 127.936 45.384 129.696 50.824 129.696ZM147.317 90.432V144H130.901V136.704C129.237 139.072 126.965 140.992 124.085 142.464C121.269 143.872 118.133 144.576 114.677 144.576C110.581 144.576 106.965 143.68 103.829 141.888C100.693 140.032 98.2608 137.376 96.5328 133.92C94.8048 130.464 93.9408 126.4 93.9408 121.728V90.432H110.261V119.52C110.261 123.104 111.189 125.888 113.045 127.872C114.901 129.856 117.397 130.848 120.533 130.848C123.733 130.848 126.261 129.856 128.117 127.872C129.973 125.888 130.901 123.104 130.901 119.52V90.432H147.317ZM175.524 99.36C177.444 96.416 179.844 94.112 182.724 92.448C185.604 90.72 188.804 89.856 192.324 89.856V107.232H187.812C183.716 107.232 180.644 108.128 178.596 109.92C176.548 111.648 175.524 114.72 175.524 119.136V144H159.108V90.432H175.524V99.36ZM244.899 144.672C239.971 144.672 235.555 143.872 231.651 142.272C227.747 140.672 224.611 138.304 222.243 135.168C219.939 132.032 218.723 128.256 218.595 123.84H236.067C236.323 126.336 237.187 128.256 238.659 129.6C240.131 130.88 242.051 131.52 244.419 131.52C246.851 131.52 248.771 130.976 250.179 129.888C251.587 128.736 252.291 127.168 252.291 125.184C252.291 123.52 251.715 122.144 250.563 121.056C249.475 119.968 248.099 119.072 246.435 118.368C244.835 117.664 242.531 116.864 239.523 115.968C235.171 114.624 231.619 113.28 228.867 111.936C226.115 110.592 223.747 108.608 221.763 105.984C219.779 103.36 218.787 99.936 218.787 95.712C218.787 89.44 221.059 84.544 225.603 81.024C230.147 77.44 236.067 75.648 243.363 75.648C250.787 75.648 256.771 77.44 261.315 81.024C265.859 84.544 268.291 89.472 268.611 95.808H250.851C250.723 93.632 249.923 91.936 248.451 90.72C246.979 89.44 245.091 88.8 242.786 88.8C240.803 88.8 239.203 89.344 237.987 90.432C236.771 91.456 236.163 92.96 236.163 94.944C236.163 97.12 237.187 98.816 239.234 100.032C241.283 101.248 244.483 102.56 248.835 103.968C253.187 105.44 256.707 106.848 259.395 108.192C262.147 109.536 264.515 111.488 266.499 114.048C268.483 116.608 269.475 119.904 269.475 123.936C269.475 127.776 268.483 131.264 266.499 134.4C264.579 137.536 261.763 140.032 258.051 141.888C254.339 143.744 249.955 144.672 244.899 144.672ZM330.073 116.352C330.073 117.888 329.977 119.488 329.785 121.152H292.633C292.889 124.48 293.945 127.04 295.801 128.832C297.721 130.56 300.057 131.424 302.809 131.424C306.905 131.424 309.753 129.696 311.353 126.24H328.825C327.929 129.76 326.297 132.928 323.929 135.744C321.625 138.56 318.713 140.768 315.193 142.368C311.673 143.968 307.737 144.768 303.385 144.768C298.137 144.768 293.465 143.648 289.369 141.408C285.273 139.168 282.073 135.968 279.769 131.808C277.465 127.648 276.313 122.784 276.313 117.216C276.313 111.648 277.433 106.784 279.673 102.624C281.977 98.464 285.177 95.264 289.273 93.024C293.369 90.784 298.073 89.664 303.385 89.664C308.569 89.664 313.177 90.752 317.209 92.928C321.241 95.104 324.377 98.208 326.617 102.24C328.921 106.272 330.073 110.976 330.073 116.352ZM313.273 112.032C313.273 109.216 312.313 106.976 310.393 105.312C308.473 103.648 306.073 102.816 303.193 102.816C300.441 102.816 298.105 103.616 296.185 105.216C294.329 106.816 293.177 109.088 292.729 112.032H313.273ZM355.149 99.36C357.069 96.416 359.469 94.112 362.349 92.448C365.229 90.72 368.429 89.856 371.949 89.856V107.232H367.437C363.341 107.232 360.269 108.128 358.221 109.92C356.173 111.648 355.149 114.72 355.149 119.136V144H338.733V90.432H355.149V99.36ZM403.892 128.64L415.508 90.432H432.98L413.972 144H393.716L374.708 90.432H392.276L403.892 128.64ZM448.146 84.864C445.266 84.864 442.898 84.032 441.042 82.368C439.25 80.64 438.354 78.528 438.354 76.032C438.354 73.472 439.25 71.36 441.042 69.696C442.898 67.968 445.266 67.104 448.146 67.104C450.962 67.104 453.266 67.968 455.058 69.696C456.914 71.36 457.842 73.472 457.842 76.032C457.842 78.528 456.914 80.64 455.058 82.368C453.266 84.032 450.962 84.864 448.146 84.864ZM456.306 90.432V144H439.89V90.432H456.306ZM464.938 117.216C464.938 111.648 466.058 106.784 468.298 102.624C470.602 98.464 473.77 95.264 477.802 93.024C481.898 90.784 486.57 89.664 491.818 89.664C498.538 89.664 504.138 91.424 508.618 94.944C513.162 98.464 516.138 103.424 517.546 109.824H500.074C498.602 105.728 495.754 103.68 491.53 103.68C488.522 103.68 486.122 104.864 484.33 107.232C482.538 109.536 481.642 112.864 481.642 117.216C481.642 121.568 482.538 124.928 484.33 127.296C486.122 129.6 488.522 130.752 491.53 130.752C495.754 130.752 498.602 128.704 500.074 124.608H517.546C516.138 130.88 513.162 135.808 508.618 139.392C504.074 142.976 498.474 144.768 491.818 144.768C486.57 144.768 481.898 143.648 477.802 141.408C473.77 139.168 470.602 135.968 468.298 131.808C466.058 127.648 464.938 122.784 464.938 117.216ZM576.823 116.352C576.823 117.888 576.727 119.488 576.535 121.152H539.383C539.639 124.48 540.695 127.04 542.551 128.832C544.471 130.56 546.807 131.424 549.559 131.424C553.655 131.424 556.503 129.696 558.103 126.24H575.575C574.679 129.76 573.047 132.928 570.679 135.744C568.375 138.56 565.463 140.768 561.943 142.368C558.423 143.968 554.487 144.768 550.135 144.768C544.887 144.768 540.215 143.648 536.119 141.408C532.023 139.168 528.823 135.968 526.519 131.808C524.215 127.648 523.063 122.784 523.063 117.216C523.063 111.648 524.183 106.784 526.423 102.624C528.727 98.464 531.927 95.264 536.023 93.024C540.119 90.784 544.823 89.664 550.135 89.664C555.319 89.664 559.927 90.752 563.959 92.928C567.991 95.104 571.127 98.208 573.367 102.24C575.671 106.272 576.823 110.976 576.823 116.352ZM560.023 112.032C560.023 109.216 559.063 106.976 557.143 105.312C555.223 103.648 552.823 102.816 549.943 102.816C547.191 102.816 544.855 103.616 542.935 105.216C541.079 106.816 539.927 109.088 539.479 112.032H560.023ZM607.275 144.768C602.603 144.768 598.443 143.968 594.795 142.368C591.147 140.768 588.267 138.592 586.155 135.84C584.043 133.024 582.859 129.888 582.603 126.432H598.827C599.019 128.288 599.883 129.792 601.419 130.944C602.955 132.096 604.843 132.672 607.083 132.672C609.131 132.672 610.699 132.288 611.787 131.52C612.939 130.688 613.515 129.632 613.515 128.352C613.515 126.816 612.715 125.696 611.115 124.992C609.515 124.224 606.923 123.392 603.339 122.496C599.499 121.6 596.299 120.672 593.739 119.712C591.179 118.688 588.971 117.12 587.115 115.008C585.259 112.832 584.331 109.92 584.331 106.272C584.331 103.2 585.163 100.416 586.827 97.92C588.555 95.36 591.051 93.344 594.315 91.872C597.643 90.4 601.579 89.664 606.123 89.664C612.843 89.664 618.123 91.328 621.963 94.656C625.867 97.984 628.107 102.4 628.683 107.904H613.515C613.259 106.048 612.427 104.576 611.019 103.488C609.675 102.4 607.883 101.856 605.643 101.856C603.723 101.856 602.251 102.24 601.227 103.008C600.203 103.712 599.691 104.704 599.691 105.984C599.691 107.52 600.491 108.672 602.091 109.44C603.755 110.208 606.315 110.976 609.771 111.744C613.739 112.768 616.971 113.792 619.467 114.816C621.963 115.776 624.139 117.376 625.995 119.616C627.915 121.792 628.907 124.736 628.971 128.448C628.971 131.584 628.075 134.4 626.283 136.896C624.555 139.328 622.027 141.248 618.699 142.656C615.435 144.064 611.627 144.768 607.275 144.768Z" fill="white"/>
</svg>
