<svg width="432" height="188" viewBox="0 0 432 188" fill="none" xmlns="http://www.w3.org/2000/svg">
<path d="M56.9 73.6L57.7725 74.0886L57.7766 74.0813L56.9 73.6ZM48.3 81.7L47.8286 80.8181L47.8286 80.8181L48.3 81.7ZM23.3 84.8V83.8H22.3V84.8H23.3ZM23.3 110V111H24.3V110H23.3ZM6.2 110H5.2V111H6.2V110ZM6.2 39.8V38.8H5.2V39.8H6.2ZM48.1 42.7L48.5472 41.8056L48.5472 41.8056L48.1 42.7ZM23.3 53.6V52.6H22.3V53.6H23.3ZM23.3 71.2H22.3V72.2H23.3V71.2ZM58.7 62.4C58.7 66.3069 57.8051 69.8735 56.0234 73.1187L57.7766 74.0813C59.7282 70.5265 60.7 66.6265 60.7 62.4H58.7ZM56.0275 73.1114C54.2674 76.2544 51.5522 78.8279 47.8286 80.8181L48.7714 82.5819C52.7811 80.4388 55.7993 77.6122 57.7725 74.0886L56.0275 73.1114ZM47.8286 80.8181C44.1448 82.787 39.5178 83.8 33.9 83.8V85.8C39.7488 85.8 44.7219 84.7463 48.7714 82.5819L47.8286 80.8181ZM33.9 83.8H23.3V85.8H33.9V83.8ZM22.3 84.8V110H24.3V84.8H22.3ZM23.3 109H6.2V111H23.3V109ZM7.2 110V39.8H5.2V110H7.2ZM6.2 40.8H33.9V38.8H6.2V40.8ZM33.9 40.8C39.389 40.8 43.9598 41.7479 47.6528 43.5944L48.5472 41.8056C44.5069 39.7854 39.611 38.8 33.9 38.8V40.8ZM47.6528 43.5944C51.3616 45.4489 54.1055 47.9845 55.9307 51.1943L57.6693 50.2057C55.6278 46.6155 52.5717 43.8178 48.5472 41.8056L47.6528 43.5944ZM55.9307 51.1943C57.7681 54.4255 58.7 58.1512 58.7 62.4H60.7C60.7 57.8488 59.6986 53.7744 57.6693 50.2057L55.9307 51.1943ZM32.6 72.2C36.0037 72.2 38.7337 71.4027 40.5919 69.622L39.2081 68.178C37.8663 69.4639 35.7297 70.2 32.6 70.2V72.2ZM40.5919 69.622C42.4376 67.8532 43.3 65.3965 43.3 62.4H41.3C41.3 65.0035 40.5624 66.8802 39.2081 68.178L40.5919 69.622ZM43.3 62.4C43.3 59.4035 42.4376 56.9468 40.5919 55.178L39.2081 56.622C40.5624 57.9198 41.3 59.7965 41.3 62.4H43.3ZM40.5919 55.178C38.7337 53.3972 36.0037 52.6 32.6 52.6V54.6C35.7297 54.6 37.8663 55.3361 39.2081 56.622L40.5919 55.178ZM32.6 52.6H23.3V54.6H32.6V52.6ZM22.3 53.6V71.2H24.3V53.6H22.3ZM23.3 72.2H32.6V70.2H23.3V72.2ZM79.2023 107.3L78.7282 108.18L78.7338 108.183L79.2023 107.3ZM68.9023 97.3L68.0332 97.7947L68.039 97.8047L68.9023 97.3ZM69.0023 67L69.8657 67.5047L69.869 67.499L69.0023 67ZM79.4023 56.9L79.8708 57.7835L79.8708 57.7835L79.4023 56.9ZM109.002 56.9L108.534 57.7835L108.534 57.7835L109.002 56.9ZM119.402 67L118.536 67.499L118.539 67.5047L119.402 67ZM119.302 97.3L118.441 96.7913L118.439 96.7953L119.302 97.3ZM108.802 107.3L108.339 106.414L108.334 106.417L108.802 107.3ZM102.302 92.4L101.585 91.7029L101.58 91.7081L101.575 91.7134L102.302 92.4ZM102.402 71.8L101.665 72.4757L101.67 72.4812L101.675 72.4866L102.402 71.8ZM85.9023 71.8L86.63 72.4861L86.6395 72.4757L85.9023 71.8ZM85.8023 92.4L85.0549 93.0644L85.06 93.0701L85.0652 93.0757L85.8023 92.4ZM94.0023 109.8C88.6827 109.8 83.9128 108.666 79.6708 106.417L78.7338 108.183C83.2919 110.601 88.3886 111.8 94.0023 111.8V109.8ZM79.6764 106.42C75.5083 104.175 72.2082 100.973 69.7656 96.7953L68.039 97.8047C70.6632 102.293 74.2298 105.758 78.7282 108.18L79.6764 106.42ZM69.7714 96.8053C67.4037 92.6457 66.2023 87.7551 66.2023 82.1H64.2023C64.2023 88.0449 65.4677 93.2876 68.0333 97.7947L69.7714 96.8053ZM66.2023 82.1C66.2023 76.5184 67.4339 71.6642 69.8656 67.5047L68.139 66.4953C65.5041 71.0025 64.2023 76.2149 64.2023 82.1H66.2023ZM69.869 67.499C72.3103 63.2587 75.6405 60.0268 79.8708 57.7835L78.9338 56.0165C74.3642 58.4398 70.761 61.9413 68.1357 66.501L69.869 67.499ZM79.8708 57.7835C84.1128 55.5339 88.8827 54.4 94.2023 54.4V52.4C88.5886 52.4 83.4919 53.5994 78.9338 56.0165L79.8708 57.7835ZM94.2023 54.4C99.5219 54.4 104.292 55.5339 108.534 57.7835L109.471 56.0165C104.913 53.5994 99.8161 52.4 94.2023 52.4V54.4ZM108.534 57.7835C112.764 60.0268 116.094 63.2587 118.536 67.499L120.269 66.501C117.644 61.9413 114.04 58.4398 109.471 56.0165L108.534 57.7835ZM118.539 67.5047C120.971 71.6642 122.202 76.5184 122.202 82.1H124.202C124.202 76.2149 122.901 71.0025 120.266 66.4953L118.539 67.5047ZM122.202 82.1C122.202 87.6767 120.94 92.5635 118.441 96.7913L120.163 97.8087C122.865 93.2365 124.202 87.99 124.202 82.1H122.202ZM118.439 96.7953C116.001 100.966 112.64 104.167 108.339 106.414L109.265 108.186C113.898 105.766 117.537 102.301 120.166 97.8047L118.439 96.7953ZM108.334 106.417C104.092 108.666 99.3219 109.8 94.0023 109.8V111.8C99.6161 111.8 104.713 110.601 109.271 108.183L108.334 106.417ZM94.0023 97C97.5474 97 100.576 95.6842 103.029 93.0866L101.575 91.7134C99.4953 93.9158 96.9906 95 94.0023 95V97ZM103.019 93.0971C105.588 90.4548 106.802 86.7375 106.802 82.1H104.802C104.802 86.3959 103.683 89.5452 101.585 91.7029L103.019 93.0971ZM106.802 82.1C106.802 77.4698 105.626 73.7565 103.129 71.1134L101.675 72.4866C103.712 74.6435 104.802 77.7968 104.802 82.1H106.802ZM103.139 71.1243C100.749 68.5169 97.7482 67.2 94.2023 67.2V69.2C97.1898 69.2 99.6553 70.2831 101.665 72.4757L103.139 71.1243ZM94.2023 67.2C90.5963 67.2 87.5597 68.5121 85.1652 71.1243L86.6395 72.4757C88.645 70.2879 91.1417 69.2 94.2023 69.2V67.2ZM85.1748 71.114C82.7387 73.6977 81.6023 77.4174 81.6023 82.1H83.6023C83.6023 77.716 84.666 74.569 86.6299 72.486L85.1748 71.114ZM81.6023 82.1C81.6023 86.7158 82.7049 90.4206 85.0549 93.0644L86.5498 91.7356C84.6331 89.5794 83.6023 86.4175 83.6023 82.1H81.6023ZM85.0652 93.0757C87.4553 95.6831 90.4564 97 94.0023 97V95C91.0149 95 88.5494 93.9169 86.5395 91.7243L85.0652 93.0757ZM149.374 63.5H148.374V66.8639L150.212 64.0463L149.374 63.5ZM156.874 56.3L157.374 57.1659L157.382 57.1617L157.389 57.1575L156.874 56.3ZM166.874 53.6H167.874V52.6H166.874V53.6ZM166.874 71.7V72.7H167.874V71.7H166.874ZM152.574 74.5L153.219 75.2643L153.226 75.2585L153.233 75.2526L152.574 74.5ZM149.374 110V111H150.374V110H149.374ZM132.274 110H131.274V111H132.274V110ZM132.274 54.2V53.2H131.274V54.2H132.274ZM149.374 54.2H150.374V53.2H149.374V54.2ZM150.212 64.0463C152.131 61.1035 154.518 58.8162 157.374 57.1659L156.374 55.4341C153.23 57.2505 150.617 59.7632 148.537 62.9537L150.212 64.0463ZM157.389 57.1575C160.226 55.4553 163.38 54.6 166.874 54.6V52.6C163.035 52.6 159.523 53.5447 156.36 55.4425L157.389 57.1575ZM165.874 53.6V71.7H167.874V53.6H165.874ZM166.874 70.7H162.174V72.7H166.874V70.7ZM162.174 70.7C157.784 70.7 154.304 71.6575 151.916 73.7474L153.233 75.2526C155.111 73.6091 158.031 72.7 162.174 72.7V70.7ZM151.929 73.7357C149.459 75.8198 148.374 79.3917 148.374 84.1H150.374C150.374 79.6083 151.422 76.7802 153.219 75.2643L151.929 73.7357ZM148.374 84.1V110H150.374V84.1H148.374ZM149.374 109H132.274V111H149.374V109ZM133.274 110V54.2H131.274V110H133.274ZM132.274 55.2H149.374V53.2H132.274V55.2ZM148.374 54.2V63.5H150.374V54.2H148.374ZM206.148 95.5H207.148V94.5H206.148V95.5ZM206.148 110V111H207.148V110H206.148ZM182.948 105.5L182.285 106.249L182.293 106.256L182.948 105.5ZM177.748 68.4H178.748V67.4H177.748V68.4ZM170.948 68.4H169.948V69.4H170.948V68.4ZM170.948 54.2V53.2H169.948V54.2H170.948ZM177.748 54.2V55.2H178.748V54.2H177.748ZM177.748 40.6V39.6H176.748V40.6H177.748ZM194.848 40.6H195.848V39.6H194.848V40.6ZM194.848 54.2H193.848V55.2H194.848V54.2ZM206.048 54.2H207.048V53.2H206.048V54.2ZM206.048 68.4V69.4H207.048V68.4H206.048ZM194.848 68.4V67.4H193.848V68.4H194.848ZM196.048 94.4L195.372 95.1372L195.372 95.1372L196.048 94.4ZM205.148 95.5V110H207.148V95.5H205.148ZM206.148 109H197.448V111H206.148V109ZM197.448 109C191.403 109 186.831 107.539 183.602 104.744L182.293 106.256C185.997 109.461 191.093 111 197.448 111V109ZM183.61 104.751C180.445 101.951 178.748 97.3204 178.748 90.6H176.748C176.748 97.6129 178.517 102.916 182.285 106.249L183.61 104.751ZM178.748 90.6V68.4H176.748V90.6H178.748ZM177.748 67.4H170.948V69.4H177.748V67.4ZM171.948 68.4V54.2H169.948V68.4H171.948ZM170.948 55.2H177.748V53.2H170.948V55.2ZM178.748 54.2V40.6H176.748V54.2H178.748ZM177.748 41.6H194.848V39.6H177.748V41.6ZM193.848 40.6V54.2H195.848V40.6H193.848ZM194.848 55.2H206.048V53.2H194.848V55.2ZM205.048 54.2V68.4H207.048V54.2H205.048ZM206.048 67.4H194.848V69.4H206.048V67.4ZM193.848 68.4V90.8H195.848V68.4H193.848ZM193.848 90.8C193.848 92.598 194.276 94.1329 195.372 95.1372L196.723 93.6628C196.219 93.2004 195.848 92.3354 195.848 90.8H193.848ZM195.372 95.1372C196.45 96.1255 198.097 96.5 200.048 96.5V94.5C198.265 94.5 197.245 94.1412 196.723 93.6628L195.372 95.1372ZM200.048 96.5H206.148V94.5H200.048V96.5ZM243.673 68.4V69.4H244.673V68.4H243.673ZM234.473 68.4V67.4H233.473V68.4H234.473ZM234.473 110V111H235.473V110H234.473ZM217.373 110H216.373V111H217.373V110ZM217.373 68.4H218.373V67.4H217.373V68.4ZM211.173 68.4H210.173V69.4H211.173V68.4ZM211.173 54.2V53.2H210.173V54.2H211.173ZM217.373 54.2V55.2H218.373V54.2H217.373ZM223.273 37L223.941 37.744L223.948 37.7377L223.273 37ZM243.373 31.7H244.373V30.805L243.483 30.7061L243.373 31.7ZM243.373 46.2L243.312 47.1981L244.373 47.2631V46.2H243.373ZM236.473 47.6L237.12 48.3619L237.12 48.3619L236.473 47.6ZM234.473 54.2H233.473V55.2H234.473V54.2ZM243.673 54.2H244.673V53.2H243.673V54.2ZM243.673 67.4H234.473V69.4H243.673V67.4ZM233.473 68.4V110H235.473V68.4H233.473ZM234.473 109H217.373V111H234.473V109ZM218.373 110V68.4H216.373V110H218.373ZM217.373 67.4H211.173V69.4H217.373V67.4ZM212.173 68.4V54.2H210.173V68.4H212.173ZM211.173 55.2H217.373V53.2H211.173V55.2ZM218.373 54.2V52.6H216.373V54.2H218.373ZM218.373 52.6C218.373 45.9272 220.277 41.0348 223.941 37.7439L222.604 36.2561C218.401 40.0318 216.373 45.5395 216.373 52.6H218.373ZM223.948 37.7377C227.631 34.3663 233.117 32.6 240.573 32.6V30.6C232.828 30.6 226.781 32.4337 222.597 36.2623L223.948 37.7377ZM240.573 32.6C241.833 32.6 242.72 32.6337 243.262 32.6939L243.483 30.7061C242.825 30.633 241.845 30.6 240.573 30.6V32.6ZM242.373 31.7V46.2H244.373V31.7H242.373ZM243.434 45.2019C240.109 44.9983 237.468 45.4416 235.825 46.8381L237.12 48.3619C238.144 47.4917 240.103 47.0017 243.312 47.1981L243.434 45.2019ZM235.825 46.8381C234.155 48.2579 233.473 50.6653 233.473 53.7H235.473C235.473 50.8681 236.124 49.2088 237.12 48.3619L235.825 46.8381ZM233.473 53.7V54.2H235.473V53.7H233.473ZM234.473 55.2H243.673V53.2H234.473V55.2ZM242.673 54.2V68.4H244.673V54.2H242.673ZM262.308 107.3L261.834 108.18L261.839 108.183L262.308 107.3ZM252.008 97.3L251.139 97.7947L251.145 97.8047L252.008 97.3ZM252.108 67L252.971 67.5047L252.974 67.499L252.108 67ZM262.508 56.9L262.976 57.7835L262.976 57.7835L262.508 56.9ZM292.108 56.9L291.639 57.7835L291.639 57.7835L292.108 56.9ZM302.508 67L301.641 67.499L301.645 67.5047L302.508 67ZM302.408 97.3L301.547 96.7913L301.545 96.7953L302.408 97.3ZM291.908 107.3L291.445 106.414L291.439 106.417L291.908 107.3ZM285.408 92.4L284.691 91.7029L284.686 91.7081L284.681 91.7134L285.408 92.4ZM285.508 71.8L284.771 72.4757L284.776 72.4812L284.781 72.4866L285.508 71.8ZM269.008 71.8L269.735 72.4861L269.745 72.4757L269.008 71.8ZM268.908 92.4L268.16 93.0644L268.165 93.0701L268.171 93.0757L268.908 92.4ZM277.108 109.8C271.788 109.8 267.018 108.666 262.776 106.417L261.839 108.183C266.397 110.601 271.494 111.8 277.108 111.8V109.8ZM262.782 106.42C258.614 104.175 255.314 100.973 252.871 96.7953L251.145 97.8047C253.769 102.293 257.335 105.758 261.834 108.18L262.782 106.42ZM252.877 96.8053C250.509 92.6457 249.308 87.7551 249.308 82.1H247.308C247.308 88.0449 248.573 93.2876 251.139 97.7947L252.877 96.8053ZM249.308 82.1C249.308 76.5184 250.539 71.6642 252.971 67.5047L251.245 66.4953C248.61 71.0025 247.308 76.2149 247.308 82.1H249.308ZM252.974 67.499C255.416 63.2587 258.746 60.0268 262.976 57.7835L262.039 56.0165C257.47 58.4398 253.866 61.9413 251.241 66.501L252.974 67.499ZM262.976 57.7835C267.218 55.5339 271.988 54.4 277.308 54.4V52.4C271.694 52.4 266.597 53.5994 262.039 56.0165L262.976 57.7835ZM277.308 54.4C282.627 54.4 287.397 55.5339 291.639 57.7835L292.576 56.0165C288.018 53.5994 282.922 52.4 277.308 52.4V54.4ZM291.639 57.7835C295.87 60.0268 299.2 63.2587 301.641 67.499L303.374 66.501C300.749 61.9413 297.146 58.4398 292.576 56.0165L291.639 57.7835ZM301.645 67.5047C304.076 71.6642 305.308 76.5184 305.308 82.1H307.308C307.308 76.2149 306.006 71.0025 303.371 66.4953L301.645 67.5047ZM305.308 82.1C305.308 87.6767 304.045 92.5635 301.547 96.7913L303.269 97.8087C305.971 93.2365 307.308 87.99 307.308 82.1H305.308ZM301.545 96.7953C299.106 100.966 295.746 104.167 291.445 106.414L292.371 108.186C297.003 105.766 300.642 102.301 303.271 97.8047L301.545 96.7953ZM291.439 106.417C287.197 108.666 282.427 109.8 277.108 109.8V111.8C282.722 111.8 287.818 110.601 292.376 108.183L291.439 106.417ZM277.108 97C280.653 97 283.682 95.6842 286.135 93.0866L284.681 91.7134C282.601 93.9158 280.096 95 277.108 95V97ZM286.125 93.0971C288.694 90.4548 289.908 86.7375 289.908 82.1H287.908C287.908 86.3959 286.789 89.5452 284.691 91.7029L286.125 93.0971ZM289.908 82.1C289.908 77.4698 288.731 73.7565 286.235 71.1134L284.781 72.4866C286.818 74.6435 287.908 77.7968 287.908 82.1H289.908ZM286.245 71.1243C283.855 68.5169 280.854 67.2 277.308 67.2V69.2C280.295 69.2 282.761 70.2831 284.771 72.4757L286.245 71.1243ZM277.308 67.2C273.702 67.2 270.665 68.5121 268.271 71.1243L269.745 72.4757C271.75 70.2879 274.247 69.2 277.308 69.2V67.2ZM268.28 71.114C265.844 73.6977 264.708 77.4174 264.708 82.1H266.708C266.708 77.716 267.771 74.569 269.735 72.486L268.28 71.114ZM264.708 82.1C264.708 86.7158 265.81 90.4206 268.16 93.0644L269.655 91.7356C267.739 89.5794 266.708 86.4175 266.708 82.1H264.708ZM268.171 93.0757C270.561 95.6831 273.562 97 277.108 97V95C274.12 95 271.655 93.9169 269.645 91.7243L268.171 93.0757ZM332.48 36H333.48V35H332.48V36ZM332.48 110V111H333.48V110H332.48ZM315.38 110H314.38V111H315.38V110ZM315.38 36V35H314.38V36H315.38ZM331.48 36V110H333.48V36H331.48ZM332.48 109H315.38V111H332.48V109ZM316.38 110V36H314.38V110H316.38ZM315.38 37H332.48V35H315.38V37ZM346.072 45.8L345.378 46.5198L345.391 46.5324L345.404 46.5446L346.072 45.8ZM346.072 32.6L346.752 33.3328L346.753 33.3319L346.072 32.6ZM360.672 32.6L359.978 33.3198L359.991 33.3324L360.004 33.3446L360.672 32.6ZM360.672 45.8L361.352 46.5328L361.353 46.5319L360.672 45.8ZM361.972 54.2H362.972V53.2H361.972V54.2ZM361.972 110V111H362.972V110H361.972ZM344.872 110H343.872V111H344.872V110ZM344.872 54.2V53.2H343.872V54.2H344.872ZM353.472 47.4C350.677 47.4 348.461 46.599 346.739 45.0554L345.404 46.5446C347.549 48.4677 350.266 49.4 353.472 49.4V47.4ZM346.766 45.0802C345.095 43.4692 344.272 41.5293 344.272 39.2H342.272C342.272 42.0707 343.315 44.5308 345.378 46.5198L346.766 45.0802ZM344.272 39.2C344.272 36.7967 345.1 34.8671 346.752 33.3328L345.391 31.8672C343.31 33.7995 342.272 36.2699 342.272 39.2H344.272ZM346.753 33.3319C348.476 31.7278 350.688 30.9 353.472 30.9V28.9C350.256 28.9 347.534 29.8722 345.39 31.8681L346.753 33.3319ZM353.472 30.9C356.183 30.9 358.322 31.7236 359.978 33.3198L361.366 31.8802C359.288 29.8764 356.627 28.9 353.472 28.9V30.9ZM360.004 33.3446C361.72 34.8825 362.572 36.8087 362.572 39.2H364.572C364.572 36.2579 363.491 33.7842 361.339 31.8554L360.004 33.3446ZM362.572 39.2C362.572 41.5174 361.724 43.4538 359.99 45.0681L361.353 46.5319C363.486 44.5462 364.572 42.0826 364.572 39.2H362.572ZM359.991 45.0672C358.338 46.6028 356.194 47.4 353.472 47.4V49.4C356.617 49.4 359.273 48.4639 361.352 46.5328L359.991 45.0672ZM360.972 54.2V110H362.972V54.2H360.972ZM361.972 109H344.872V111H361.972V109ZM345.872 110V54.2H343.872V110H345.872ZM344.872 55.2H361.972V53.2H344.872V55.2ZM384.964 107.3L384.49 108.18L384.496 108.183L384.964 107.3ZM374.664 97.3L373.795 97.7947L373.801 97.8047L374.664 97.3ZM374.764 67L375.627 67.5047L375.631 67.499L374.764 67ZM385.164 56.9L385.633 57.7835L385.633 57.7835L385.164 56.9ZM414.764 56.9L414.296 57.7835L414.296 57.7835L414.764 56.9ZM425.164 67L424.297 67.499L424.301 67.5047L425.164 67ZM425.064 97.3L424.203 96.7913L424.201 96.7953L425.064 97.3ZM414.564 107.3L414.101 106.414L414.096 106.417L414.564 107.3ZM408.064 92.4L407.347 91.7029L407.342 91.7081L407.337 91.7134L408.064 92.4ZM408.164 71.8L407.427 72.4757L407.432 72.4812L407.437 72.4866L408.164 71.8ZM391.664 71.8L392.392 72.4861L392.401 72.4757L391.664 71.8ZM391.564 92.4L390.817 93.0644L390.822 93.0701L390.827 93.0757L391.564 92.4ZM399.764 109.8C394.444 109.8 389.675 108.666 385.433 106.417L384.496 108.183C389.054 110.601 394.15 111.8 399.764 111.8V109.8ZM385.438 106.42C381.27 104.175 377.97 100.973 375.527 96.7953L373.801 97.8047C376.425 102.293 379.991 105.758 384.49 108.18L385.438 106.42ZM375.533 96.8053C373.165 92.6457 371.964 87.7551 371.964 82.1H369.964C369.964 88.0449 371.229 93.2876 373.795 97.7947L375.533 96.8053ZM371.964 82.1C371.964 76.5184 373.196 71.6642 375.627 67.5047L373.901 66.4953C371.266 71.0025 369.964 76.2149 369.964 82.1H371.964ZM375.631 67.499C378.072 63.2587 381.402 60.0268 385.633 57.7835L384.696 56.0165C380.126 58.4398 376.523 61.9413 373.897 66.501L375.631 67.499ZM385.633 57.7835C389.875 55.5339 394.644 54.4 399.964 54.4V52.4C394.35 52.4 389.254 53.5994 384.696 56.0165L385.633 57.7835ZM399.964 54.4C405.284 54.4 410.054 55.5339 414.296 57.7835L415.233 56.0165C410.675 53.5994 405.578 52.4 399.964 52.4V54.4ZM414.296 57.7835C418.526 60.0268 421.856 63.2587 424.297 67.499L426.031 66.501C423.405 61.9413 419.802 58.4398 415.233 56.0165L414.296 57.7835ZM424.301 67.5047C426.732 71.6642 427.964 76.5184 427.964 82.1H429.964C429.964 76.2149 428.662 71.0025 426.027 66.4953L424.301 67.5047ZM427.964 82.1C427.964 87.6767 426.701 92.5635 424.203 96.7913L425.925 97.8087C428.627 93.2365 429.964 87.99 429.964 82.1H427.964ZM424.201 96.7953C421.763 100.966 418.402 104.167 414.101 106.414L415.027 108.186C419.66 105.766 423.299 102.301 425.927 97.8047L424.201 96.7953ZM414.096 106.417C409.854 108.666 405.084 109.8 399.764 109.8V111.8C405.378 111.8 410.475 110.601 415.033 108.183L414.096 106.417ZM399.764 97C403.309 97 406.338 95.6842 408.791 93.0866L407.337 91.7134C405.257 93.9158 402.752 95 399.764 95V97ZM408.781 93.0971C411.35 90.4548 412.564 86.7375 412.564 82.1H410.564C410.564 86.3959 409.445 89.5452 407.347 91.7029L408.781 93.0971ZM412.564 82.1C412.564 77.4698 411.387 73.7565 408.891 71.1134L407.437 72.4866C409.474 74.6435 410.564 77.7968 410.564 82.1H412.564ZM408.901 71.1243C406.511 68.5169 403.51 67.2 399.964 67.2V69.2C402.951 69.2 405.417 70.2831 407.427 72.4757L408.901 71.1243ZM399.964 67.2C396.358 67.2 393.321 68.5121 390.927 71.1243L392.401 72.4757C394.407 70.2879 396.903 69.2 399.964 69.2V67.2ZM390.936 71.114C388.5 73.6977 387.364 77.4174 387.364 82.1H389.364C389.364 77.716 390.428 74.569 392.392 72.486L390.936 71.114ZM387.364 82.1C387.364 86.7158 388.467 90.4206 390.817 93.0644L392.311 91.7356C390.395 89.5794 389.364 86.4175 389.364 82.1H387.364ZM390.827 93.0757C393.217 95.6831 396.218 97 399.764 97V95C396.777 95 394.311 93.9169 392.301 91.7243L390.827 93.0757Z" fill="#6D8B74"/>
<path d="M65.312 104.304C65.312 108.208 64.416 111.792 62.624 115.056C60.832 118.256 58.08 120.848 54.368 122.832C50.656 124.816 46.048 125.808 40.544 125.808H30.368V150H13.952V82.608H40.544C45.92 82.608 50.464 83.536 54.176 85.392C57.888 87.248 60.672 89.808 62.528 93.072C64.384 96.336 65.312 100.08 65.312 104.304ZM39.296 112.752C42.432 112.752 44.768 112.016 46.304 110.544C47.84 109.072 48.608 106.992 48.608 104.304C48.608 101.616 47.84 99.536 46.304 98.064C44.768 96.592 42.432 95.856 39.296 95.856H30.368V112.752H39.296ZM98.2423 150.768C92.9943 150.768 88.2583 149.648 84.0343 147.408C79.8743 145.168 76.5783 141.968 74.1463 137.808C71.7783 133.648 70.5943 128.784 70.5943 123.216C70.5943 117.712 71.8103 112.88 74.2422 108.72C76.6743 104.496 80.0023 101.264 84.2263 99.024C88.4503 96.784 93.1863 95.664 98.4343 95.664C103.682 95.664 108.418 96.784 112.642 99.024C116.866 101.264 120.194 104.496 122.626 108.72C125.058 112.88 126.274 117.712 126.274 123.216C126.274 128.72 125.026 133.584 122.53 137.808C120.098 141.968 116.738 145.168 112.45 147.408C108.226 149.648 103.49 150.768 98.2423 150.768ZM98.2423 136.56C101.378 136.56 104.034 135.408 106.21 133.104C108.45 130.8 109.57 127.504 109.57 123.216C109.57 118.928 108.482 115.632 106.306 113.328C104.194 111.024 101.57 109.872 98.4343 109.872C95.2343 109.872 92.5783 111.024 90.4663 113.328C88.3543 115.568 87.2983 118.864 87.2983 123.216C87.2983 127.504 88.3223 130.8 90.3703 133.104C92.4823 135.408 95.1063 136.56 98.2423 136.56ZM151.399 105.36C153.319 102.416 155.719 100.112 158.599 98.448C161.479 96.72 164.679 95.856 168.199 95.856V113.232H163.687C159.591 113.232 156.519 114.128 154.471 115.92C152.423 117.648 151.399 120.72 151.399 125.136V150H134.983V96.432H151.399V105.36ZM205.902 136.08V150H197.55C191.598 150 186.958 148.56 183.63 145.68C180.302 142.736 178.638 137.968 178.638 131.376V110.064H172.11V96.432H178.638V83.376H195.054V96.432H205.806V110.064H195.054V131.568C195.054 133.168 195.438 134.32 196.206 135.024C196.974 135.728 198.254 136.08 200.046 136.08H205.902ZM241.926 110.064H233.094V150H216.678V110.064H210.726V96.432H216.678V94.896C216.678 88.304 218.566 83.312 222.342 79.92C226.118 76.464 231.654 74.736 238.95 74.736C240.166 74.736 241.062 74.768 241.638 74.832V88.752C238.502 88.56 236.294 89.008 235.014 90.096C233.734 91.184 233.094 93.136 233.094 95.952V96.432H241.926V110.064ZM274.024 150.768C268.776 150.768 264.04 149.648 259.816 147.408C255.656 145.168 252.36 141.968 249.928 137.808C247.56 133.648 246.376 128.784 246.376 123.216C246.376 117.712 247.592 112.88 250.023 108.72C252.456 104.496 255.784 101.264 260.008 99.024C264.232 96.784 268.968 95.664 274.216 95.664C279.464 95.664 284.2 96.784 288.424 99.024C292.648 101.264 295.976 104.496 298.408 108.72C300.84 112.88 302.056 117.712 302.056 123.216C302.056 128.72 300.808 133.584 298.312 137.808C295.88 141.968 292.52 145.168 288.232 147.408C284.008 149.648 279.272 150.768 274.024 150.768ZM274.024 136.56C277.16 136.56 279.816 135.408 281.992 133.104C284.232 130.8 285.352 127.504 285.352 123.216C285.352 118.928 284.264 115.632 282.088 113.328C279.976 111.024 277.352 109.872 274.216 109.872C271.016 109.872 268.36 111.024 266.248 113.328C264.136 115.568 263.08 118.864 263.08 123.216C263.08 127.504 264.104 130.8 266.152 133.104C268.264 135.408 270.888 136.56 274.024 136.56ZM327.181 78.96V150H310.765V78.96H327.181ZM347.333 90.864C344.453 90.864 342.085 90.032 340.229 88.368C338.437 86.64 337.541 84.528 337.541 82.032C337.541 79.472 338.437 77.36 340.229 75.696C342.085 73.968 344.453 73.104 347.333 73.104C350.149 73.104 352.453 73.968 354.245 75.696C356.101 77.36 357.029 79.472 357.029 82.032C357.029 84.528 356.101 86.64 354.245 88.368C352.453 90.032 350.149 90.864 347.333 90.864ZM355.493 96.432V150H339.077V96.432H355.493ZM391.774 150.768C386.526 150.768 381.79 149.648 377.566 147.408C373.406 145.168 370.11 141.968 367.678 137.808C365.31 133.648 364.126 128.784 364.126 123.216C364.126 117.712 365.342 112.88 367.773 108.72C370.206 104.496 373.534 101.264 377.758 99.024C381.982 96.784 386.718 95.664 391.966 95.664C397.214 95.664 401.95 96.784 406.174 99.024C410.398 101.264 413.726 104.496 416.158 108.72C418.59 112.88 419.806 117.712 419.806 123.216C419.806 128.72 418.558 133.584 416.062 137.808C413.63 141.968 410.27 145.168 405.982 147.408C401.758 149.648 397.022 150.768 391.774 150.768ZM391.774 136.56C394.91 136.56 397.566 135.408 399.742 133.104C401.982 130.8 403.102 127.504 403.102 123.216C403.102 118.928 402.014 115.632 399.838 113.328C397.726 111.024 395.102 109.872 391.966 109.872C388.766 109.872 386.11 111.024 383.998 113.328C381.886 115.568 380.83 118.864 380.83 123.216C380.83 127.504 381.854 130.8 383.902 133.104C386.014 135.408 388.638 136.56 391.774 136.56Z" fill="#5F7161"/>
</svg>
